<svg width="400" height="400" viewBox="0 0 400 400" fill="none" xmlns="http://www.w3.org/2000/svg">
<path d="M327.741 122.045C315.593 61.9163 262.012 17.3955 199.996 17.3955C137.971 17.3955 84.3895 61.9163 72.2506 122.045C31.9037 125.132 0 158.879 0 200C0 243.147 35.1123 278.259 78.2592 278.259H95.6501C100.45 278.259 104.346 274.364 104.346 269.564C104.346 264.764 100.45 260.868 95.6501 260.868H78.2592C44.6947 260.868 17.3909 233.565 17.3909 200C17.3909 166.436 44.6947 139.132 77.8244 139.054C77.92 139.071 78.0244 139.071 78.1287 139.08C78.1722 139.089 78.207 139.115 78.2505 139.123C78.32 139.132 78.3809 139.106 78.4418 139.115C78.7896 139.158 79.1287 139.219 79.4765 139.219C84.0069 139.219 88.6676 139.81 93.3371 140.984C93.6762 141.132 94.0327 141.254 94.3979 141.349C109.702 145.523 123.041 155.819 130.988 169.575C133.388 173.731 138.701 175.157 142.866 172.749C147.023 170.349 148.449 165.027 146.04 160.871C136.032 143.549 119.38 130.506 100.207 124.924C99.8065 124.741 99.3891 124.593 98.9544 124.48C95.911 123.663 92.8675 123.045 89.8241 122.611C101.441 71.9422 147.223 34.7864 199.996 34.7864C252.76 34.7864 298.541 71.9421 310.167 122.602C307.124 123.045 304.072 123.654 301.037 124.471C300.611 124.584 300.193 124.732 299.802 124.906C280.62 130.489 263.959 143.541 253.951 160.862C251.551 165.027 252.968 170.34 257.125 172.74C261.273 175.149 266.603 173.723 269.003 169.566C276.951 155.81 290.289 145.523 305.593 141.341C305.959 141.236 306.306 141.123 306.646 140.975C311.324 139.802 315.984 139.21 320.523 139.21C321.089 139.219 321.184 139.236 321.741 139.123C355.305 139.123 382.609 166.427 382.609 199.992C382.609 233.556 355.305 260.86 321.741 260.86H304.35C299.55 260.86 295.654 264.755 295.654 269.555C295.654 274.355 299.55 278.251 304.35 278.251H321.741C364.888 278.251 400 243.138 400 199.992C399.991 158.879 368.088 125.132 327.741 122.045Z" fill="#333333"/>
<path d="M220.448 226.634C215.962 224.982 210.944 227.225 209.249 231.721L157.076 370.848C155.389 375.353 157.667 380.361 162.163 382.057C163.171 382.422 164.198 382.605 165.215 382.605C168.737 382.605 172.05 380.448 173.363 376.961L225.535 237.834C227.222 233.338 224.944 228.33 220.448 226.634Z" fill="#333333"/>
<path d="M272.314 226.53C267.74 224.991 262.827 227.478 261.314 232.025L226.532 336.371C225.011 340.927 227.471 345.849 232.028 347.371C232.941 347.684 233.871 347.823 234.776 347.823C238.419 347.823 241.81 345.519 243.028 341.875L277.809 237.53C279.331 232.973 276.87 228.052 272.314 226.53Z" fill="#333333"/>
<path d="M168.562 226.756C164.119 224.886 159.032 227.008 157.189 231.434L113.711 335.78C111.868 340.214 113.955 345.301 118.39 347.153C119.485 347.614 120.624 347.823 121.737 347.823C125.146 347.823 128.381 345.806 129.763 342.467L173.241 238.121C175.084 233.695 172.997 228.608 168.562 226.756Z" fill="#333333"/>
</svg>
