<svg width="400" height="400" viewBox="0 0 400 400" fill="none" xmlns="http://www.w3.org/2000/svg">
<g clip-path="url(#clip0)">
<path d="M200 0C195.2 0 191.305 3.89565 191.305 8.69565V60.8696C191.305 65.6696 195.192 69.5652 200 69.5652C204.8 69.5652 208.696 65.6696 208.696 60.8696V8.69565C208.696 3.89565 204.8 0 200 0Z" fill="#333333"/>
<path d="M200 330.435C195.2 330.435 191.305 334.33 191.305 339.13V391.304C191.305 396.104 195.2 400 200 400C204.8 400 208.696 396.104 208.696 391.304V339.13C208.696 334.33 204.8 330.435 200 330.435Z" fill="#333333"/>
<path d="M391.305 191.304H339.131C334.323 191.304 330.436 195.2 330.436 200C330.436 204.8 334.331 208.696 339.131 208.696H391.305C396.105 208.696 400.001 204.8 400.001 200C400.001 195.2 396.105 191.304 391.305 191.304Z" fill="#333333"/>
<path d="M60.8696 191.304H8.69565C3.89565 191.304 0 195.2 0 200C0 204.8 3.88696 208.696 8.69565 208.696H60.8696C65.6696 208.696 69.5652 204.8 69.5652 200C69.5652 195.2 65.6696 191.304 60.8696 191.304Z" fill="#333333"/>
<path d="M345.277 332.982L301.799 289.504C298.399 286.104 292.903 286.104 289.503 289.504C286.103 292.904 286.103 298.4 289.503 301.8L332.981 345.278C334.677 346.974 336.903 347.826 339.129 347.826C341.355 347.826 343.581 346.974 345.277 345.278C348.677 341.878 348.677 336.382 345.277 332.982Z" fill="#333333"/>
<path d="M110.496 98.2001L67.0175 54.7219C63.6175 51.3219 58.1219 51.3219 54.7219 54.7219C51.3219 58.1219 51.3219 63.6175 54.7219 67.0175L98.2001 110.496C99.8958 112.191 102.122 113.044 104.348 113.044C106.574 113.044 108.8 112.191 110.496 110.496C113.896 107.096 113.896 101.6 110.496 98.2001Z" fill="#333333"/>
<path d="M110.496 289.504C107.096 286.104 101.6 286.104 98.2001 289.504L54.7219 332.982C51.3219 336.382 51.3219 341.878 54.7219 345.278C56.4175 346.974 58.6436 347.826 60.8697 347.826C63.0958 347.826 65.3219 346.974 67.0175 345.278L110.496 301.8C113.896 298.4 113.896 292.904 110.496 289.504Z" fill="#333333"/>
<path d="M345.277 54.7219C341.877 51.3219 336.381 51.3219 332.981 54.7219L289.503 98.2001C286.103 101.6 286.103 107.096 289.503 110.496C291.199 112.191 293.425 113.044 295.651 113.044C297.877 113.044 300.103 112.191 301.799 110.496L345.277 67.0175C348.677 63.6175 348.677 58.1219 345.277 54.7219Z" fill="#333333"/>
<path d="M200 104.348C147.261 104.348 104.348 147.261 104.348 200C104.348 252.739 147.261 295.652 200 295.652C252.739 295.652 295.652 252.739 295.652 200C295.652 147.261 252.739 104.348 200 104.348ZM200 278.261C156.852 278.261 121.739 243.148 121.739 200C121.739 156.852 156.852 121.739 200 121.739C243.148 121.739 278.261 156.852 278.261 200C278.261 243.148 243.148 278.261 200 278.261Z" fill="#333333"/>
</g>
<defs>
<clipPath id="clip0">
<rect width="400" height="400" fill="white"/>
</clipPath>
</defs>
</svg>
