<svg width="264" height="264" viewBox="0 0 264 264" fill="none" xmlns="http://www.w3.org/2000/svg">
<path d="M237.679 137.739H258.26C261.427 137.739 263.999 135.168 263.999 132C263.999 128.832 261.427 126.261 258.26 126.261H237.685L262.317 101.629C264.561 99.3791 264.561 95.752 262.317 93.5081C260.073 91.2641 256.446 91.2641 254.202 93.5081L221.449 126.261H145.86L197.511 74.6093H246.781C249.949 74.6093 252.52 72.0382 252.52 68.8703C252.52 65.7023 249.949 63.1312 246.781 63.1312H208.984L227.883 44.2324C230.127 41.9885 230.127 38.3614 227.883 36.1174C225.639 33.8734 222.012 33.8734 219.768 36.1174L200.869 55.0161V17.2186C200.869 14.0507 198.298 11.4796 195.13 11.4796C191.962 11.4796 189.391 14.0507 189.391 17.2186V66.4943L137.739 118.146V42.5566L170.498 9.79802C172.742 7.55405 172.742 3.92696 170.498 1.68298C168.254 -0.560994 164.627 -0.560994 162.383 1.68298L137.739 26.3208V5.7405C137.739 2.57254 135.168 0.00143481 132 0.00143481C128.832 0.00143481 126.261 2.57254 126.261 5.7405V26.3151L101.629 1.68298C99.3849 -0.560994 95.7578 -0.560994 93.5138 1.68298C91.2698 3.92696 91.2698 7.55405 93.5138 9.79802L126.261 42.5509V118.146L74.6093 66.4943V17.2186C74.6093 14.0507 72.0382 11.4796 68.8703 11.4796C65.7023 11.4796 63.1312 14.0507 63.1312 17.2186V55.0161L44.2324 36.1174C41.9885 33.8734 38.3614 33.8734 36.1174 36.1174C33.8734 38.3614 33.8734 41.9885 36.1174 44.2324L55.0161 63.1312H17.2186C14.0507 63.1312 11.4796 65.7023 11.4796 68.8703C11.4796 72.0382 14.0507 74.6093 17.2186 74.6093H66.4943L118.146 126.261H42.5509L9.79802 93.5081C7.55405 91.2641 3.92696 91.2641 1.68298 93.5081C-0.560994 95.752 -0.560994 99.3791 1.68298 101.623L26.3151 126.261H5.7405C2.57254 126.261 0.00143481 128.832 0.00143481 132C0.00143481 135.168 2.57254 137.739 5.7405 137.739H26.3208L1.68298 162.377C-0.560994 164.621 -0.560994 168.248 1.68298 170.492C2.8021 171.611 4.2713 172.173 5.7405 172.173C7.2097 172.173 8.67891 171.611 9.79802 170.492L42.5566 137.739H118.152L66.5 189.391H17.2186C14.0507 189.391 11.4796 191.962 11.4796 195.13C11.4796 198.298 14.0507 200.869 17.2186 200.869H55.0161L36.1174 219.768C33.8734 222.012 33.8734 225.639 36.1174 227.883C37.2365 229.002 38.7057 229.564 40.1749 229.564C41.6441 229.564 43.1133 229.002 44.2324 227.883L63.1312 208.984V246.781C63.1312 249.949 65.7023 252.52 68.8703 252.52C72.0382 252.52 74.6093 249.949 74.6093 246.781V197.506L126.261 145.854V221.449L93.5081 254.202C91.2641 256.446 91.2641 260.073 93.5081 262.317C95.752 264.561 99.3791 264.561 101.623 262.317L126.261 237.685V258.26C126.261 261.427 128.832 263.999 132 263.999C135.168 263.999 137.739 261.427 137.739 258.26V237.679L162.377 262.317C163.496 263.436 164.965 263.999 166.434 263.999C167.904 263.999 169.373 263.436 170.492 262.317C172.736 260.073 172.736 256.446 170.492 254.202L137.739 221.443V145.854L189.391 197.506V246.781C189.391 249.949 191.962 252.52 195.13 252.52C198.298 252.52 200.869 249.949 200.869 246.781V208.984L219.768 227.883C220.887 229.002 222.356 229.564 223.825 229.564C225.294 229.564 226.763 229.002 227.883 227.883C230.127 225.639 230.127 222.012 227.883 219.768L208.984 200.869H246.781C249.949 200.869 252.52 198.298 252.52 195.13C252.52 191.962 249.949 189.391 246.781 189.391H197.506L145.854 137.739H221.449L254.208 170.498C255.321 171.611 256.79 172.173 258.26 172.173C259.729 172.173 261.198 171.611 262.317 170.492C264.561 168.248 264.561 164.621 262.317 162.377L237.679 137.739Z" fill="#333333"/>
</svg>
