<svg width="400" height="400" viewBox="0 0 400 400" fill="none" xmlns="http://www.w3.org/2000/svg">
<path d="M327.757 104.652C315.609 44.5217 262.017 0 200 0C137.974 0 84.3913 44.5217 72.2522 104.652C31.9043 107.739 0 141.487 0 182.609C0 225.756 35.113 260.869 78.2609 260.869H95.6522C100.452 260.869 104.348 256.974 104.348 252.174C104.348 247.374 100.452 243.478 95.6522 243.478H78.2609C44.6957 243.478 17.3913 216.174 17.3913 182.609C17.3913 149.043 44.6957 121.739 77.8261 121.661C77.9217 121.678 78.0261 121.678 78.1304 121.687C78.1739 121.696 78.2087 121.722 78.2522 121.73C78.3217 121.739 78.3826 121.713 78.4522 121.722C78.8 121.765 79.1391 121.826 79.487 121.826C84.0174 121.826 88.6783 122.417 93.3478 123.591C93.687 123.739 94.0435 123.861 94.4087 123.956C109.713 128.13 123.052 138.426 131 152.183C133.391 156.33 138.704 157.765 142.878 155.356C147.035 152.956 148.461 147.635 146.052 143.478C136.043 126.156 119.391 113.113 100.217 107.53C99.8174 107.348 99.4 107.2 98.9652 107.087C95.9217 106.27 92.8783 105.652 89.8348 105.217C101.443 54.5478 147.226 17.3913 200 17.3913C252.765 17.3913 298.557 54.5478 310.165 105.209C307.122 105.652 304.07 106.261 301.035 107.087C300.609 107.2 300.2 107.348 299.8 107.522C280.626 113.104 263.965 126.156 253.948 143.478C251.548 147.643 252.974 152.956 257.13 155.356C261.27 157.765 266.6 156.33 269.009 152.183C276.957 138.426 290.287 128.139 305.591 123.956C305.948 123.852 306.304 123.739 306.643 123.591C311.313 122.417 315.974 121.826 320.522 121.826C321.096 121.826 321.191 121.852 321.739 121.739C355.296 121.739 382.609 149.043 382.609 182.609C382.609 216.174 355.296 243.478 321.739 243.478H304.348C299.539 243.478 295.652 247.374 295.652 252.174C295.652 256.974 299.539 260.869 304.348 260.869H321.739C364.896 260.869 400 225.756 400 182.609C400 141.487 368.104 107.748 327.757 104.652Z" fill="#333333"/>
<path d="M156.522 260.869C166.127 260.869 173.913 253.083 173.913 243.478C173.913 233.873 166.127 226.087 156.522 226.087C146.917 226.087 139.131 233.873 139.131 243.478C139.131 253.083 146.917 260.869 156.522 260.869Z" fill="#333333"/>
<path d="M200.001 330.435C209.606 330.435 217.392 322.649 217.392 313.044C217.392 303.439 209.606 295.652 200.001 295.652C190.396 295.652 182.609 303.439 182.609 313.044C182.609 322.649 190.396 330.435 200.001 330.435Z" fill="#333333"/>
<path d="M113.044 330.435C122.649 330.435 130.435 322.649 130.435 313.044C130.435 303.439 122.649 295.652 113.044 295.652C103.439 295.652 95.6523 303.439 95.6523 313.044C95.6523 322.649 103.439 330.435 113.044 330.435Z" fill="#333333"/>
<path d="M286.956 330.435C296.561 330.435 304.347 322.649 304.347 313.044C304.347 303.439 296.561 295.652 286.956 295.652C277.351 295.652 269.564 303.439 269.564 313.044C269.564 322.649 277.351 330.435 286.956 330.435Z" fill="#333333"/>
<path d="M243.479 260.869C253.084 260.869 260.87 253.083 260.87 243.478C260.87 233.873 253.084 226.087 243.479 226.087C233.874 226.087 226.088 233.873 226.088 243.478C226.088 253.083 233.874 260.869 243.479 260.869Z" fill="#333333"/>
<path d="M156.522 400C166.127 400 173.913 392.214 173.913 382.609C173.913 373.004 166.127 365.217 156.522 365.217C146.917 365.217 139.131 373.004 139.131 382.609C139.131 392.214 146.917 400 156.522 400Z" fill="#333333"/>
<path d="M243.479 400C253.084 400 260.87 392.214 260.87 382.609C260.87 373.004 253.084 365.217 243.479 365.217C233.874 365.217 226.088 373.004 226.088 382.609C226.088 392.214 233.874 400 243.479 400Z" fill="#333333"/>
</svg>
