<svg width="400" height="400" viewBox="0 0 400 400" fill="none" xmlns="http://www.w3.org/2000/svg">
<path d="M327.757 174.218C315.609 114.087 262.017 69.5654 200 69.5654C137.974 69.5654 84.3913 114.087 72.2522 174.218C31.9043 177.305 0 211.052 0 252.174C0 295.322 35.113 330.435 78.2609 330.435H321.739C364.896 330.435 400 295.322 400 252.174C400 211.052 368.104 177.313 327.757 174.218ZM321.739 313.044H78.2609C44.6957 313.044 17.3913 285.739 17.3913 252.174C17.3913 218.609 44.6957 191.305 77.8261 191.226C77.9217 191.244 78.0261 191.244 78.1304 191.252C78.1739 191.261 78.2087 191.287 78.2522 191.296C78.3217 191.305 78.3826 191.278 78.4522 191.287C78.8 191.331 79.1391 191.392 79.487 191.392C84.0174 191.392 88.6783 191.983 93.3478 193.157C93.687 193.305 94.0435 193.426 94.4087 193.522C109.713 197.696 123.052 207.992 131 221.748C133.391 225.896 138.704 227.331 142.878 224.922C147.035 222.522 148.461 217.2 146.052 213.044C136.043 195.722 119.391 182.678 100.217 177.096C99.8174 176.913 99.4 176.765 98.9652 176.652C95.9217 175.835 92.8783 175.218 89.8348 174.783C101.443 124.113 147.226 86.9567 200 86.9567C252.765 86.9567 298.556 124.113 310.174 174.774C307.13 175.218 304.087 175.826 301.043 176.644C300.617 176.757 300.209 176.905 299.809 177.078C280.635 182.661 263.974 195.713 253.957 213.035C251.557 217.2 252.983 222.513 257.139 224.913C261.278 227.322 266.609 225.887 269.017 221.739C276.965 207.983 290.296 197.696 305.6 193.513C305.957 193.409 306.313 193.296 306.652 193.148C311.322 191.974 315.983 191.383 320.53 191.383C321.104 191.383 321.2 191.409 321.748 191.296C355.304 191.296 382.617 218.6 382.617 252.165C382.617 285.731 355.296 313.044 321.739 313.044Z" fill="#333333"/>
</svg>
