<svg width="400" height="400" viewBox="0 0 400 400" fill="none" xmlns="http://www.w3.org/2000/svg">
<path d="M327.757 122.048C315.609 61.9172 262.017 17.3955 200 17.3955C137.974 17.3955 84.3913 61.9172 72.2522 122.048C31.9043 125.135 0 158.882 0 200.004C0 243.152 35.1043 278.265 78.2609 278.265H113.043C117.852 278.265 121.739 274.369 121.739 269.569C121.739 264.769 117.852 260.874 113.043 260.874H78.2609C44.7043 260.874 17.3913 233.569 17.3913 200.004C17.3913 166.439 44.7043 139.135 77.8435 139.065C77.9391 139.082 78.0435 139.074 78.1391 139.091C78.1826 139.1 78.2087 139.126 78.2522 139.135C78.6609 139.196 79.0609 139.222 79.4609 139.222C79.4696 139.222 79.4783 139.222 79.487 139.222C84.0174 139.222 88.6783 139.813 93.3478 140.987C93.687 141.135 94.0435 141.256 94.4087 141.352C109.722 145.535 123.052 155.822 130.991 169.569C133.391 173.735 138.713 175.143 142.87 172.752C147.035 170.352 148.461 165.03 146.052 160.874C136.052 143.552 119.4 130.509 100.217 124.917C99.8174 124.735 99.4 124.587 98.9652 124.474C95.9217 123.656 92.8783 123.039 89.8348 122.604C101.443 71.9433 147.226 34.7868 200 34.7868C252.765 34.7868 298.557 71.9433 310.165 122.604C307.122 123.048 304.07 123.656 301.035 124.482C300.609 124.596 300.2 124.743 299.8 124.917C280.626 130.5 263.965 143.552 253.948 160.874C251.548 165.039 252.974 170.352 257.13 172.752C261.278 175.161 266.6 173.735 269.009 169.578C276.957 155.822 290.287 145.535 305.591 141.352C305.948 141.248 306.304 141.135 306.643 140.987C311.313 139.813 315.974 139.222 320.522 139.222C321.078 139.23 321.191 139.248 321.739 139.135C355.296 139.135 382.609 166.439 382.609 200.004C382.609 233.569 355.296 260.874 321.739 260.874H286.957C282.148 260.874 278.261 264.769 278.261 269.569C278.261 274.369 282.148 278.265 286.957 278.265H321.739C364.896 278.265 400 243.152 400 200.004C400 158.882 368.104 125.143 327.757 122.048Z" fill="#333333"/>
<path d="M234.783 286.961H184.583L241.288 223.178C244.47 219.578 244.149 214.091 240.557 210.891C236.975 207.7 231.47 208.021 228.288 211.613L158.723 289.874C156.444 292.43 155.888 296.091 157.288 299.213C158.688 302.335 161.792 304.352 165.218 304.352H217.001L167.053 368.578C164.097 372.369 164.783 377.83 168.575 380.778C170.166 382.013 172.044 382.604 173.905 382.604C176.497 382.604 179.062 381.448 180.775 379.248L241.644 300.987C243.679 298.369 244.053 294.813 242.592 291.83C241.131 288.856 238.105 286.961 234.783 286.961Z" fill="#333333"/>
</svg>
