<svg width="400" height="400" viewBox="0 0 400 400" fill="none" xmlns="http://www.w3.org/2000/svg">
<path d="M374.957 212.296C390.974 194.791 400 171.8 400 147.826C400 95.0869 357.087 52.1738 304.348 52.1738C274.243 52.1738 246.357 66.339 228.322 90.1477C219.052 88.0695 209.557 86.9564 200 86.9564C137.974 86.9564 84.3913 131.478 72.2522 191.609C31.9043 194.696 0 228.443 0 269.565C0 312.713 35.113 347.826 78.2609 347.826H321.739C364.887 347.826 400 312.713 400 269.565C400 247.739 390.774 227 374.957 212.296ZM304.348 69.5651C347.496 69.5651 382.609 104.678 382.609 147.826C382.609 168.026 374.774 187.374 360.93 201.843C360.009 201.304 359.026 200.896 358.078 200.391C357.157 199.904 356.235 199.426 355.287 198.974C352.4 197.591 349.452 196.374 346.426 195.365C346.035 195.235 345.661 195.052 345.27 194.93C341.87 193.852 338.391 193.078 334.87 192.478C333.896 192.313 332.922 192.217 331.939 192.087C330.583 191.904 329.235 191.643 327.861 191.539C318.974 147.461 288.052 111.243 246.235 95.4434C260.957 79.0695 281.948 69.5651 304.348 69.5651ZM321.739 330.435H78.2609C44.6957 330.435 17.3913 303.13 17.3913 269.565C17.3913 236 44.6957 208.696 77.8261 208.617C77.9217 208.635 78.0261 208.635 78.1304 208.643C78.1739 208.652 78.2087 208.678 78.2522 208.687C78.6522 208.748 79.0522 208.774 79.4522 208.774C79.4609 208.774 79.4783 208.774 79.487 208.774C84.0174 208.774 88.6783 209.365 93.3478 210.539C93.687 210.687 94.0435 210.809 94.4087 210.904C109.713 215.078 123.052 225.374 131 239.13C133.4 243.287 138.713 244.713 142.878 242.304C147.035 239.904 148.461 234.583 146.052 230.426C136.043 213.104 119.391 200.061 100.217 194.478C99.8174 194.296 99.4 194.148 98.9652 194.035C95.9217 193.217 92.8783 192.6 89.8348 192.165C101.443 141.504 147.226 104.348 200 104.348C210.009 104.348 219.948 105.678 229.53 108.304C229.539 108.304 229.539 108.304 229.548 108.304C229.557 108.304 229.557 108.313 229.565 108.313C270.148 119.278 300.939 151.678 310.191 192.165C307.148 192.609 304.096 193.217 301.052 194.043C300.617 194.156 300.2 194.304 299.8 194.487C284.313 199.017 270.47 208.339 260.643 220.8C260.617 220.835 260.574 220.843 260.548 220.878C260.522 220.913 260.504 220.948 260.478 220.982C260.443 221.026 260.409 221.052 260.374 221.096C260.339 221.139 260.339 221.191 260.304 221.235C257.913 224.148 255.739 227.261 253.896 230.548C251.548 234.739 253.052 240.035 257.243 242.383C258.574 243.122 260.035 243.478 261.47 243.478C264.522 243.478 267.478 241.869 269.07 239.026C270.452 236.548 272.078 234.191 273.896 232.009C273.93 231.965 273.939 231.913 273.965 231.869C273.991 231.835 274.043 231.826 274.07 231.783C281.878 221.765 293.087 214.356 305.609 210.904C305.965 210.809 306.313 210.687 306.643 210.548C311.322 209.374 315.983 208.783 320.522 208.783C321.07 208.783 321.2 208.8 321.739 208.696C334.409 208.696 346.583 212.591 356.965 219.956C373.026 231.383 382.609 249.922 382.609 269.565C382.609 303.13 355.304 330.435 321.739 330.435Z" fill="#333333"/>
</svg>
