<svg width="329" height="329" viewBox="0 0 329 329" fill="none" xmlns="http://www.w3.org/2000/svg">
<path d="M321.848 85.8262C297.445 85.8262 285.479 79.3035 272.813 72.3944C259.123 64.9347 244.983 57.2175 216.925 57.2175C188.867 57.2175 174.728 64.9347 161.046 72.3944C148.372 79.3035 136.406 85.8262 112.003 85.8262C87.6141 85.8262 75.6628 79.3035 63.0035 72.3944C49.3285 64.9347 35.1887 57.2175 7.15217 57.2175C3.19702 57.2175 0 60.4217 0 64.3697C0 68.3177 3.19702 71.5219 7.15217 71.5219C31.5411 71.5219 43.4924 78.0447 56.1517 84.9537C69.8267 92.4134 83.9665 100.131 112.003 100.131C140.061 100.131 154.201 92.4134 167.883 84.9537C180.557 78.0447 192.522 71.5219 216.925 71.5219C241.329 71.5219 253.294 78.0447 265.961 84.9537C279.65 92.4134 293.79 100.131 321.848 100.131C325.803 100.131 329 96.9264 329 92.9784C329 89.0304 325.803 85.8262 321.848 85.8262Z" fill="#333333"/>
<path d="M321.848 143.044C297.445 143.044 285.479 136.521 272.813 129.612C259.123 122.152 244.983 114.435 216.925 114.435C188.867 114.435 174.728 122.152 161.046 129.612C148.372 136.521 136.406 143.044 112.003 143.044C87.6141 143.044 75.6628 136.521 63.0035 129.612C49.3285 122.152 35.1887 114.435 7.15217 114.435C3.19702 114.435 0 117.639 0 121.587C0 125.535 3.19702 128.739 7.15217 128.739C31.5411 128.739 43.4924 135.262 56.1517 142.171C69.8267 149.631 83.9665 157.348 112.003 157.348C140.061 157.348 154.201 149.631 167.883 142.171C180.557 135.262 192.522 128.739 216.925 128.739C241.329 128.739 253.294 135.262 265.961 142.171C279.65 149.631 293.79 157.348 321.848 157.348C325.803 157.348 329 154.144 329 150.196C329 146.248 325.803 143.044 321.848 143.044Z" fill="#333333"/>
<path d="M321.848 257.478C297.445 257.478 285.479 250.955 272.813 244.046C259.123 236.587 244.983 228.869 216.925 228.869C188.867 228.869 174.728 236.587 161.046 244.046C148.372 250.955 136.406 257.478 112.003 257.478C87.6141 257.478 75.6628 250.955 63.0035 244.046C49.3285 236.587 35.1887 228.869 7.15217 228.869C3.19702 228.869 0 232.074 0 236.022C0 239.97 3.19702 243.174 7.15217 243.174C31.5411 243.174 43.4924 249.696 56.1517 256.605C69.8267 264.065 83.9665 271.782 112.003 271.782C140.061 271.782 154.201 264.065 167.883 256.605C180.557 249.696 192.522 243.174 216.925 243.174C241.329 243.174 253.294 249.696 265.961 256.605C279.65 264.065 293.79 271.782 321.848 271.782C325.803 271.782 329 268.578 329 264.63C329 260.682 325.803 257.478 321.848 257.478Z" fill="#333333"/>
<path d="M321.848 200.261C297.445 200.261 285.479 193.738 272.813 186.829C259.123 179.369 244.983 171.652 216.925 171.652C188.867 171.652 174.728 179.369 161.046 186.829C148.372 193.738 136.406 200.261 112.003 200.261C87.6141 200.261 75.6628 193.738 63.0035 186.829C49.3285 179.369 35.1887 171.652 7.15217 171.652C3.19702 171.652 0 174.856 0 178.804C0 182.752 3.19702 185.956 7.15217 185.956C31.5411 185.956 43.4924 192.479 56.1517 199.388C69.8267 206.848 83.9665 214.565 112.003 214.565C140.061 214.565 154.201 206.848 167.883 199.388C180.557 192.479 192.522 185.956 216.925 185.956C241.329 185.956 253.294 192.479 265.961 199.388C279.65 206.848 293.79 214.565 321.848 214.565C325.803 214.565 329 211.361 329 207.413C329 203.465 325.803 200.261 321.848 200.261Z" fill="#333333"/>
</svg>
