<svg width="296" height="296" viewBox="0 0 296 296" fill="none" xmlns="http://www.w3.org/2000/svg">
<path d="M242.54 90.3121C233.55 45.8156 193.893 12.8695 148 12.8695C102.107 12.8695 62.4496 45.8156 53.4602 90.3121C23.6028 92.6029 0 117.57 0 148C0 179.929 25.9772 205.913 57.913 205.913H70.7826C74.341 205.913 77.2174 203.03 77.2174 199.478C77.2174 195.926 74.341 193.043 70.7826 193.043H57.913C33.0812 193.043 12.8696 172.838 12.8696 148C12.8696 123.162 33.0812 102.956 57.572 102.899C57.6492 102.911 57.7329 102.911 57.8165 102.924C57.8487 102.931 57.868 102.95 57.9002 102.956C57.9517 102.963 57.9967 102.944 58.0482 102.95C58.3056 102.982 58.5565 103.021 58.8139 103.021C62.1664 103.021 65.6219 103.458 69.0774 104.327C69.3283 104.436 69.5922 104.527 69.8624 104.597C81.1877 107.686 91.0586 115.305 96.9464 125.485C98.7096 128.56 102.641 129.616 105.736 127.833C108.812 126.051 109.867 122.119 108.079 119.043C100.556 106.032 88.5362 96.6118 74.1609 92.4356C73.8649 92.3069 73.556 92.1975 73.2343 92.1139C70.9821 91.509 68.7299 91.0521 66.4777 90.7239C75.0682 53.2349 108.954 25.7391 148 25.7391C187.046 25.7391 220.932 53.2349 229.522 90.7239C227.27 91.0521 225.011 91.5026 222.766 92.1139C222.45 92.1975 222.148 92.3069 221.852 92.4356C207.663 96.5667 195.334 106.225 187.921 119.043C186.145 122.126 187.201 126.057 190.277 127.833C193.346 129.616 197.284 128.56 199.066 125.485C204.948 115.305 214.812 107.692 226.138 104.597C226.401 104.52 226.665 104.436 226.916 104.327C230.372 103.458 233.821 103.021 237.186 103.021C237.598 103.027 237.675 103.04 238.087 102.956C262.919 102.956 283.13 123.162 283.13 148C283.13 172.838 262.919 193.043 238.087 193.043H225.217C221.659 193.043 218.783 195.926 218.783 199.478C218.783 203.03 221.659 205.913 225.217 205.913H238.087C270.023 205.913 296 179.929 296 148C296 117.57 272.397 92.6029 242.54 90.3121Z" fill="#333333"/>
<path d="M148 141.565C144.442 141.565 141.565 144.448 141.565 148V186.609C141.565 190.161 144.442 193.043 148 193.043C151.559 193.043 154.435 190.161 154.435 186.609V148C154.435 144.448 151.559 141.565 148 141.565Z" fill="#333333"/>
<path d="M109.391 180.174C105.832 180.174 102.956 183.057 102.956 186.609V225.217C102.956 228.769 105.832 231.652 109.391 231.652C112.949 231.652 115.826 228.769 115.826 225.217V186.609C115.826 183.057 112.949 180.174 109.391 180.174Z" fill="#333333"/>
<path d="M186.61 180.174C183.051 180.174 180.175 183.057 180.175 186.609V225.217C180.175 228.769 183.051 231.652 186.61 231.652C190.168 231.652 193.044 228.769 193.044 225.217V186.609C193.044 183.057 190.168 180.174 186.61 180.174Z" fill="#333333"/>
<path d="M109.391 283.13C116.499 283.13 122.261 277.369 122.261 270.261C122.261 263.153 116.499 257.391 109.391 257.391C102.283 257.391 96.5215 263.153 96.5215 270.261C96.5215 277.369 102.283 283.13 109.391 283.13Z" fill="#333333"/>
<path d="M186.608 283.13C193.716 283.13 199.477 277.369 199.477 270.261C199.477 263.153 193.716 257.391 186.608 257.391C179.5 257.391 173.738 263.153 173.738 270.261C173.738 277.369 179.5 283.13 186.608 283.13Z" fill="#333333"/>
<path d="M148 244.522C155.108 244.522 160.87 238.76 160.87 231.652C160.87 224.545 155.108 218.783 148 218.783C140.893 218.783 135.131 224.545 135.131 231.652C135.131 238.76 140.893 244.522 148 244.522Z" fill="#333333"/>
</svg>
