<svg width="400" height="400" viewBox="0 0 400 400" fill="none" xmlns="http://www.w3.org/2000/svg">
<path d="M321.739 52.1738C278.583 52.1738 243.478 87.2869 243.478 130.435C243.478 135.235 247.365 139.13 252.174 139.13C256.983 139.13 260.87 135.235 260.87 130.435C260.87 96.8695 288.183 69.5651 321.739 69.5651C355.296 69.5651 382.609 96.8695 382.609 130.435C382.609 164 355.296 191.304 321.739 191.304H8.69565C3.89565 191.304 0 195.2 0 200C0 204.8 3.89565 208.696 8.69565 208.696H321.739C364.896 208.696 400 173.583 400 130.435C400 87.2869 364.896 52.1738 321.739 52.1738Z" fill="#333333"/>
<path d="M156.522 34.7827C122.957 34.7827 95.6522 62.0871 95.6522 95.6523C95.6522 100.452 99.5478 104.348 104.348 104.348C109.148 104.348 113.043 100.452 113.043 95.6523C113.043 71.6784 132.548 52.174 156.522 52.174C180.496 52.174 200 71.6784 200 95.6523C200 119.626 180.496 139.131 156.522 139.131H8.69565C3.89565 139.131 0 143.026 0 147.826C0 152.626 3.89565 156.522 8.69565 156.522H156.522C190.087 156.522 217.391 129.218 217.391 95.6523C217.391 62.0871 190.087 34.7827 156.522 34.7827Z" fill="#333333"/>
<path d="M304.348 243.479H8.69565C3.89565 243.479 0 247.374 0 252.174C0 256.974 3.89565 260.87 8.69565 260.87H304.348C328.322 260.87 347.826 280.374 347.826 304.348C347.826 328.322 328.322 347.826 304.348 347.826C280.374 347.826 260.87 328.322 260.87 304.348C260.87 299.548 256.983 295.652 252.174 295.652C247.365 295.652 243.478 299.548 243.478 304.348C243.478 337.913 270.791 365.218 304.348 365.218C337.904 365.218 365.217 337.913 365.217 304.348C365.217 270.783 337.904 243.479 304.348 243.479Z" fill="#333333"/>
</svg>
