<svg width="35" height="70" viewBox="0 0 35 70" fill="none" xmlns="http://www.w3.org/2000/svg">
<path d="M32.2489 0H24.4592C18.4993 0 14.2185 1.32415 11.6169 3.97156C9.01447 6.61986 7.71441 10.5201 7.71441 15.674V20.5866C7.71441 21.8849 6.59026 22.9371 5.20322 22.9371H2.5112C1.12416 22.9371 0 23.9894 0 25.2877V32.6494C0 33.9477 1.12416 34.9999 2.5112 34.9999H5.20322C6.59026 34.9999 7.71441 36.0522 7.71441 37.3504V67.6493C7.71441 68.9476 8.83857 69.9999 10.2256 69.9999H20.6772C22.0642 69.9999 23.1884 68.9475 23.1884 67.6493V37.3506C23.1884 36.0522 24.3127 35.0001 25.6996 35.0001H30.978C32.3652 35.0001 33.6074 33.9533 33.7531 32.6629L34.5867 25.2743C34.7324 23.9832 33.7263 22.9371 32.3391 22.9371H25.6988C24.3117 22.9371 23.1876 21.8849 23.1876 20.5866V16.9057C23.1876 15.9999 23.2328 15.2987 23.3239 14.8028C23.4143 14.3076 23.6185 13.8194 23.9367 13.3375C24.2539 12.8565 24.7687 12.5236 25.4794 12.3393C26.1899 12.1552 27.1359 12.0628 28.3153 12.0628H32.2478C33.6349 12.0628 34.7589 11.0106 34.7589 9.71227V2.35052C34.76 1.05223 33.6358 0 32.2489 0Z" fill="#FFFCFB"/>
</svg>
