<svg width="75" height="70" viewBox="0 0 75 70" fill="none" xmlns="http://www.w3.org/2000/svg">
<g clip-path="url(#clip0)">
<path d="M52.2621 0H44.4723C38.5125 0 34.2317 1.32415 31.6301 3.97156C29.0276 6.61986 27.7276 10.5201 27.7276 15.674V20.5866C27.7276 21.8849 26.6034 22.9371 25.2164 22.9371H22.5244C21.1373 22.9371 20.0132 23.9894 20.0132 25.2877V32.6494C20.0132 33.9477 21.1373 34.9999 22.5244 34.9999H25.2164C26.6034 34.9999 27.7276 36.0522 27.7276 37.3505V67.6493C27.7276 68.9476 28.8518 69.9999 30.2388 69.9999H40.6904C42.0774 69.9999 43.2016 68.9475 43.2016 67.6493V37.3506C43.2016 36.0522 44.3259 35.0001 45.7128 35.0001H50.9912C52.3784 35.0001 53.6206 33.9533 53.7662 32.6629L54.5999 25.2743C54.7456 23.9832 53.7394 22.9371 52.3523 22.9371H45.7119C44.3249 22.9371 43.2007 21.8849 43.2007 20.5866V16.9057C43.2007 15.9999 43.246 15.2987 43.3371 14.8028C43.4275 14.3076 43.6317 13.8194 43.9499 13.3375C44.267 12.8565 44.7819 12.5236 45.4926 12.3393C46.2031 12.1552 47.149 12.0628 48.3285 12.0628H52.261C53.6481 12.0628 54.7721 11.0106 54.7721 9.71227V2.35052C54.7732 1.05223 53.649 0 52.2621 0Z" fill="#FFFCFB"/>
</g>
<defs>
<clipPath id="clip0">
<rect width="74.7852" height="70" fill="white"/>
</clipPath>
</defs>
</svg>
