<svg width="55" height="70" viewBox="0 0 55 70" fill="none" xmlns="http://www.w3.org/2000/svg">
<path d="M9.3313 38.0377C9.41888 37.8193 10.2953 34.4515 10.3567 34.2235C8.98843 32.1647 7.46851 25.4227 8.63435 19.9503C9.89206 11.9207 18.4012 7.97348 26.435 7.97348V7.95853C36.4935 7.96494 44.0226 13.5613 44.0306 23.1995C44.037 30.7436 39.4922 40.7155 31.7318 40.7155C31.7297 40.7155 31.7281 40.7155 31.7259 40.7155C28.9563 40.7155 25.4497 39.4594 24.53 38.2257C23.4689 36.804 23.2083 35.0497 23.769 33.1751C25.1431 28.7889 26.8954 23.5349 27.0999 20.0314C27.2895 16.7251 24.9434 14.5739 21.9009 14.5739C19.6114 14.5739 16.6377 15.9037 15.1557 19.6405C13.9317 22.745 13.9578 25.9953 15.2358 29.5761C15.7341 30.9759 13.027 40.1013 12.1597 43.0728C10.0047 50.4546 7.05461 59.7942 7.68533 64.9953L8.29416 70L11.3522 65.9924C15.584 60.4527 19.9596 46.1228 21.1254 42.636C24.5722 47.0996 31.75 47.2278 32.5868 47.2278C42.8658 47.2278 54.5216 37.0209 54.1911 22.8149C53.9011 10.357 44.7836 0 28.4014 0V0.0160218C12.8187 0.0160218 3.72369 8.33344 1.49721 18.8426C-0.541825 28.587 3.99286 36.0035 9.3313 38.0377Z" fill="#FFFCFB"/>
</svg>
