<svg width="70" height="70" viewBox="0 0 70 70" fill="none" xmlns="http://www.w3.org/2000/svg">
<g clip-path="url(#clip0)">
<path d="M69.9313 20.5802C69.7673 16.8608 69.1659 14.3038 68.3043 12.0881C67.4154 9.73617 66.048 7.6305 64.2564 5.88005C62.5059 4.10236 60.3864 2.72102 58.0617 1.84606C55.8332 0.98446 53.2895 0.382994 49.5702 0.219006C45.823 0.0411304 44.6334 0 35.1296 0C25.6258 0 24.4362 0.0411304 20.703 0.205118C16.9836 0.369106 14.4266 0.971106 12.2114 1.83218C9.85897 2.72102 7.7533 4.08848 6.00285 5.88005C4.22516 7.6305 2.84436 9.75006 1.96887 12.0747C1.10726 14.3038 0.505797 16.8469 0.341809 20.5663C0.163933 24.3134 0.122803 25.503 0.122803 35.0068C0.122803 44.5106 0.163933 45.7002 0.327921 49.4335C0.491908 53.1529 1.09391 55.7099 1.95551 57.9256C2.84436 60.2775 4.22516 62.3832 6.00285 64.1336C7.7533 65.9113 9.87286 67.2927 12.1975 68.1676C14.4266 69.0292 16.9697 69.6307 20.6896 69.7947C24.4224 69.9592 25.6125 69.9998 35.1163 69.9998C44.6201 69.9998 45.8097 69.9592 49.5429 69.7947C53.2623 69.6307 55.8193 69.0292 58.0345 68.1676C62.7388 66.3488 66.4582 62.6294 68.277 57.9256C69.1381 55.6965 69.7401 53.1529 69.9041 49.4335C70.0681 45.7002 70.1092 44.5106 70.1092 35.0068C70.1092 25.503 70.0953 24.3134 69.9313 20.5802ZM63.6277 49.16C63.4771 52.5786 62.9028 54.4247 62.4242 55.6554C61.248 58.7049 58.8277 61.1252 55.7782 62.3014C54.5475 62.7801 52.6881 63.3543 49.2828 63.5044C45.5906 63.6689 44.4833 63.7095 35.1435 63.7095C25.8037 63.7095 24.6825 63.6689 21.0037 63.5044C17.5851 63.3543 15.739 62.7801 14.5083 62.3014C12.9908 61.7406 11.6094 60.8517 10.4882 59.6894C9.32587 58.5543 8.43703 57.1868 7.87616 55.6693C7.39755 54.4386 6.82333 52.5786 6.67323 49.1739C6.50871 45.4818 6.46811 44.3739 6.46811 35.0341C6.46811 25.6943 6.50871 24.5731 6.67323 20.8948C6.82333 17.4762 7.39755 15.6301 7.87616 14.3994C8.43703 12.8813 9.32587 11.5005 10.5021 10.3788C11.6367 9.21643 13.0041 8.32758 14.5222 7.76725C15.7529 7.28864 17.6129 6.71442 21.0176 6.56378C24.7097 6.39979 25.8176 6.35866 35.1569 6.35866C44.5106 6.35866 45.6179 6.39979 49.2967 6.56378C52.7153 6.71442 54.5614 7.28864 55.7921 7.76725C57.3096 8.32758 58.691 9.21643 59.8122 10.3788C60.9745 11.5139 61.8633 12.8813 62.4242 14.3994C62.9028 15.6301 63.4771 17.4895 63.6277 20.8948C63.7917 24.5869 63.8328 25.6943 63.8328 35.0341C63.8328 44.3739 63.7917 45.4679 63.6277 49.16Z" fill="#FFFCFB"/>
<path d="M35.1297 17.0248C25.2023 17.0248 17.1477 25.0789 17.1477 35.0068C17.1477 44.9348 25.2023 52.9889 35.1297 52.9889C45.0577 52.9889 53.1118 44.9348 53.1118 35.0068C53.1118 25.0789 45.0577 17.0248 35.1297 17.0248ZM35.1297 46.6713C28.6893 46.6713 23.4652 41.4478 23.4652 35.0068C23.4652 28.5659 28.6893 23.3423 35.1297 23.3423C41.5707 23.3423 46.7942 28.5659 46.7942 35.0068C46.7942 41.4478 41.5707 46.6713 35.1297 46.6713V46.6713Z" fill="#FFFCFB"/>
<path d="M58.0213 16.3139C58.0213 18.6321 56.1415 20.5118 53.8227 20.5118C51.5045 20.5118 49.6248 18.6321 49.6248 16.3139C49.6248 13.9951 51.5045 12.1159 53.8227 12.1159C56.1415 12.1159 58.0213 13.9951 58.0213 16.3139V16.3139Z" fill="#FFFCFB"/>
</g>
<defs>
<clipPath id="clip0">
<rect width="70" height="70" fill="white"/>
</clipPath>
</defs>
</svg>
