<svg width="54" height="54" viewBox="0 0 54 54" fill="none" xmlns="http://www.w3.org/2000/svg">
<g clip-path="url(#clip0)">
<path d="M39.0444 30.1806C38.903 29.3173 38.5073 28.4844 37.8418 27.819C36.8829 26.86 35.589 26.4643 34.3387 26.5925L41.1037 19.8275C42.7955 18.1357 42.7955 15.3675 41.1037 13.6779C39.4119 11.9861 36.6437 11.9861 34.954 13.6779L20.3237 28.3083L20.3259 26.1315C20.3259 23.733 19.3538 21.5606 17.7817 19.9884C16.6444 18.8512 15.1918 18.0335 13.5674 17.6639C13.4565 17.6334 13.3369 17.6225 13.2129 17.6225C12.3388 17.6204 11.6299 18.3293 11.6299 19.2056L11.6277 39.916C11.6277 39.9182 11.6277 39.9247 11.6277 39.9312V40.2726L11.6429 40.2596C11.7234 43.7476 13.0846 47.2138 15.7485 49.8754C21.2479 55.3749 30.1592 55.3749 35.6586 49.8754L40.7166 44.8174C41.8474 43.6867 42.217 42.084 41.8343 40.6358L39.0444 30.1806ZM39.1792 43.2779L34.1212 48.3359C29.4785 52.9785 21.9285 52.9785 17.288 48.3359C15.1244 46.1722 13.8914 43.2844 13.8175 40.2074L13.8044 19.9863C14.7177 20.3081 15.5506 20.8343 16.2421 21.528C17.4729 22.7588 18.1513 24.3919 18.1492 26.1337V30.1523C18.1492 30.5263 18.3688 30.8677 18.7102 31.0199C19.5061 31.3766 20.465 31.2396 21.1196 30.585L36.4915 15.2131C37.3395 14.3651 38.7204 14.3651 39.5663 15.2131C40.4143 16.0612 40.4143 17.442 39.5663 18.2879L30.6441 27.2101C30.3201 27.5341 30.2331 28.0299 30.431 28.4453C30.6289 28.8606 31.066 29.1063 31.5226 29.0607L34.5605 28.754C34.9497 28.7149 35.6912 28.741 36.3066 29.3564C36.7024 29.7522 36.8481 30.2175 36.9003 30.535L39.7228 41.1946C39.9251 41.9579 39.7207 42.7364 39.1792 43.2779Z" fill="#FFFCFB"/>
<path d="M24.6356 0L23.0982 1.53741L27.0341 5.47334H15.9744V7.64788H27.0341L23.1069 11.5773L24.6443 13.1147L31.1962 6.56061L24.6356 0Z" fill="#FFFCFB"/>
</g>
<defs>
<clipPath id="clip0">
<rect width="54" height="54" fill="white"/>
</clipPath>
</defs>
</svg>
