<svg width="568" height="568" viewBox="0 0 568 568" fill="none" xmlns="http://www.w3.org/2000/svg">
<g clip-path="url(#clip0)">
<path d="M409.93 209.297C409.93 227.353 395.303 241.989 377.247 241.989C359.2 241.989 344.564 227.353 344.564 209.297C344.564 191.241 359.2 176.614 377.247 176.614C395.303 176.614 409.93 191.241 409.93 209.297Z" fill="#333333"/>
<path d="M222.012 209.297C222.012 227.353 207.376 241.989 189.329 241.989C171.282 241.989 156.646 227.353 156.646 209.297C156.646 191.241 171.282 176.614 189.329 176.614C207.376 176.614 222.012 191.241 222.012 209.297Z" fill="#333333"/>
<path d="M172.538 453.621C165.104 453.621 159.07 447.596 159.07 440.153C159.07 382.015 205.832 334.714 263.315 334.714H308.712C366.195 334.714 412.957 381.754 412.957 439.569C412.957 447.012 406.932 453.046 399.489 453.046C392.054 453.046 386.03 447.012 386.03 439.569C386.03 396.614 351.345 361.659 308.713 361.659H263.316C220.684 361.659 186.008 396.865 186.008 440.152C186.006 447.596 179.972 453.621 172.538 453.621Z" fill="#333333"/>
<path d="M283.714 567.419C127.311 567.419 0.0722656 440.144 0.0722656 283.705C0.0722656 127.275 127.311 0 283.714 0C440.108 0 567.347 127.275 567.347 283.705C567.347 440.143 440.108 567.419 283.714 567.419ZM283.714 26.946C142.162 26.946 27.0093 142.127 27.0093 283.705C27.0093 425.293 142.163 540.473 283.714 540.473C425.257 540.473 540.41 425.292 540.41 283.705C540.41 142.126 425.257 26.946 283.714 26.946Z" fill="#333333"/>
</g>
<defs>
<clipPath id="clip0">
<rect width="567.419" height="567.419" fill="white"/>
</clipPath>
</defs>
</svg>
