<svg width="85" height="85" viewBox="0 0 85 85" fill="none" xmlns="http://www.w3.org/2000/svg">
<path d="M60.3629 52.2103C59.6016 51.5285 58.432 51.595 57.7538 52.3545C53.8992 56.6617 48.341 59.1304 42.5 59.1304C36.6609 59.1304 31.1008 56.6617 27.2462 52.3545C26.5643 51.595 25.3984 51.5285 24.6371 52.2103C23.8758 52.8903 23.8129 54.0581 24.4929 54.8195C29.0478 59.9084 35.6113 62.8261 42.5 62.8261C49.3906 62.8261 55.954 59.9065 60.5071 54.8195C61.1871 54.0581 61.1224 52.8903 60.3629 52.2103Z" fill="#333333"/>
<path d="M42.5 0C19.0659 0 0 19.0659 0 42.5C0 65.9341 19.0659 85 42.5 85C65.9341 85 85 65.9341 85 42.5C85 19.0659 65.9341 0 42.5 0ZM42.5 81.3043C21.1022 81.3043 3.69565 63.8978 3.69565 42.5C3.69565 21.1022 21.1022 3.69565 42.5 3.69565C63.8978 3.69565 81.3043 21.1022 81.3043 42.5C81.3043 63.8978 63.8978 81.3043 42.5 81.3043Z" fill="#333333"/>
<path d="M57.2826 29.5652C52.1882 29.5652 48.0435 33.7099 48.0435 38.8043C48.0435 39.8243 48.8713 40.6521 49.8913 40.6521C50.9113 40.6521 51.7391 39.8243 51.7391 38.8043C51.7391 35.748 54.2263 33.2608 57.2826 33.2608C60.3389 33.2608 62.8261 35.748 62.8261 38.8043C62.8261 39.8243 63.6539 40.6521 64.6739 40.6521C65.6939 40.6521 66.5217 39.8243 66.5217 38.8043C66.5217 33.7099 62.3771 29.5652 57.2826 29.5652Z" fill="#333333"/>
<path d="M33.2609 38.8043C33.2609 39.8243 34.0887 40.6521 35.1087 40.6521C36.1287 40.6521 36.9565 39.8243 36.9565 38.8043C36.9565 33.7099 32.8119 29.5652 27.7174 29.5652C22.6229 29.5652 18.4783 33.7099 18.4783 38.8043C18.4783 39.8243 19.3061 40.6521 20.3261 40.6521C21.3461 40.6521 22.1739 39.8243 22.1739 38.8043C22.1739 35.748 24.6611 33.2608 27.7174 33.2608C30.7737 33.2608 33.2609 35.748 33.2609 38.8043Z" fill="#333333"/>
</svg>
