<svg width="152" height="19" viewBox="0 0 152 19" fill="none" xmlns="http://www.w3.org/2000/svg">
<path d="M15.796 10.3C15.796 11.8107 15.4807 13.1673 14.85 14.37C14.2193 15.5727 13.3467 16.5187 12.232 17.208C11.1173 17.8827 9.84867 18.22 8.426 18.22C7.00333 18.22 5.73467 17.8827 4.62 17.208C3.50533 16.5187 2.63267 15.5727 2.002 14.37C1.37133 13.1673 1.056 11.8107 1.056 10.3C1.056 8.77467 1.37133 7.41067 2.002 6.208C2.63267 5.00533 3.50533 4.06667 4.62 3.392C5.73467 2.71733 7.00333 2.38 8.426 2.38C9.84867 2.38 11.1173 2.71733 12.232 3.392C13.3467 4.06667 14.2193 5.00533 14.85 6.208C15.4807 7.41067 15.796 8.77467 15.796 10.3ZM14.388 10.3C14.388 9.024 14.1313 7.88733 13.618 6.89C13.1193 5.878 12.4153 5.09333 11.506 4.536C10.6113 3.97867 9.58467 3.7 8.426 3.7C7.26733 3.7 6.23333 3.97867 5.324 4.536C4.42933 5.09333 3.72533 5.878 3.212 6.89C2.71333 7.88733 2.464 9.024 2.464 10.3C2.464 11.576 2.71333 12.72 3.212 13.732C3.72533 14.7293 4.42933 15.5067 5.324 16.064C6.23333 16.6213 7.26733 16.9 8.426 16.9C9.58467 16.9 10.6113 16.6213 11.506 16.064C12.4153 15.5067 13.1193 14.7293 13.618 13.732C14.1313 12.72 14.388 11.576 14.388 10.3ZM29.8018 2.6C29.9924 2.6 30.1464 2.666 30.2638 2.798C30.3958 2.91533 30.4618 3.06933 30.4618 3.26V12.368C30.4618 13.4387 30.2051 14.4213 29.6918 15.316C29.1784 16.2107 28.4818 16.9147 27.6018 17.428C26.7218 17.9413 25.7538 18.198 24.6978 18.198C23.6271 18.198 22.6518 17.9413 21.7718 17.428C20.8918 16.9147 20.1951 16.2107 19.6818 15.316C19.1684 14.4213 18.9118 13.4387 18.9118 12.368V3.26C18.9118 3.06933 18.9704 2.91533 19.0878 2.798C19.2198 2.666 19.3958 2.6 19.6158 2.6C19.7918 2.6 19.9458 2.666 20.0777 2.798C20.2098 2.91533 20.2758 3.06933 20.2758 3.26V12.368C20.2758 13.1893 20.4738 13.9447 20.8698 14.634C21.2658 15.3233 21.8011 15.8733 22.4758 16.284C23.1651 16.68 23.9058 16.878 24.6978 16.878C25.5044 16.878 26.2451 16.68 26.9198 16.284C27.6091 15.8733 28.1517 15.3233 28.5478 14.634C28.9584 13.9447 29.1638 13.1893 29.1638 12.368V3.26C29.1638 3.06933 29.2224 2.91533 29.3398 2.798C29.4571 2.666 29.6111 2.6 29.8018 2.6ZM44.4073 2.6C44.598 2.6 44.752 2.65867 44.8693 2.776C45.0013 2.89333 45.0673 3.04733 45.0673 3.238C45.0673 3.42867 45.0013 3.58267 44.8693 3.7C44.752 3.80267 44.598 3.854 44.4073 3.854H39.8533V17.34C39.8533 17.5307 39.7873 17.692 39.6553 17.824C39.5233 17.9413 39.362 18 39.1713 18C38.966 18 38.7973 17.9413 38.6653 17.824C38.548 17.692 38.4893 17.5307 38.4893 17.34V3.854H33.9353C33.7447 3.854 33.5833 3.79533 33.4513 3.678C33.334 3.56067 33.2753 3.40667 33.2753 3.216C33.2753 3.04 33.334 2.89333 33.4513 2.776C33.5833 2.65867 33.7447 2.6 33.9353 2.6H44.4073Z" fill="#333333"/>
<path d="M69.736 2.6C69.9267 2.6 70.0807 2.666 70.198 2.798C70.33 2.91533 70.396 3.06933 70.396 3.26C70.396 3.436 70.33 3.59 70.198 3.722C70.0807 3.83933 69.9267 3.898 69.736 3.898H62.41V9.42H68.746C68.9367 9.42 69.0907 9.47867 69.208 9.596C69.34 9.71333 69.406 9.86733 69.406 10.058C69.406 10.2487 69.34 10.4027 69.208 10.52C69.0907 10.6373 68.9367 10.696 68.746 10.696H62.41V17.34C62.41 17.5307 62.344 17.692 62.212 17.824C62.0947 17.9413 61.9407 18 61.75 18C61.5447 18 61.376 17.9413 61.244 17.824C61.1267 17.692 61.068 17.5307 61.068 17.34V3.26C61.068 3.06933 61.1267 2.91533 61.244 2.798C61.376 2.666 61.5373 2.6 61.728 2.6H69.736ZM84.304 17.12C84.3333 17.2373 84.348 17.3253 84.348 17.384C84.348 17.5747 84.282 17.7287 84.15 17.846C84.018 17.9633 83.864 18.022 83.688 18.022C83.5413 18.022 83.4093 17.9853 83.292 17.912C83.1893 17.824 83.1086 17.714 83.05 17.582L81.4 13.556H74.25L72.622 17.582C72.5046 17.8753 72.3066 18.022 72.028 18.022C71.8226 18.022 71.6686 17.9707 71.566 17.868C71.4633 17.7653 71.4046 17.626 71.39 17.45V17.384C71.39 17.296 71.3973 17.23 71.412 17.186L77.22 2.974C77.3373 2.68067 77.5573 2.534 77.88 2.534C78.0266 2.534 78.1513 2.578 78.254 2.666C78.3713 2.73933 78.4593 2.842 78.518 2.974L84.304 17.12ZM80.872 12.258L77.792 4.734L74.756 12.258H80.872ZM91.2221 18.22C90.1661 18.22 89.2274 18.044 88.4061 17.692C87.5994 17.34 86.8148 16.79 86.0521 16.042C85.8761 15.8953 85.7881 15.7193 85.7881 15.514C85.7881 15.338 85.8541 15.1767 85.9861 15.03C86.1328 14.8833 86.2941 14.81 86.4701 14.81C86.6461 14.81 86.8074 14.8833 86.9541 15.03C88.0981 16.2913 89.5281 16.922 91.2441 16.922C92.3001 16.922 93.1728 16.6727 93.8621 16.174C94.5661 15.6753 94.9181 15.0227 94.9181 14.216C94.9181 13.5853 94.7421 13.0647 94.3901 12.654C94.0528 12.2287 93.6054 11.884 93.0481 11.62C92.4908 11.356 91.7794 11.0847 90.9141 10.806C89.9754 10.5273 89.1834 10.2193 88.5381 9.882C87.9074 9.54467 87.3941 9.09733 86.9981 8.54C86.6021 7.968 86.4041 7.24933 86.4041 6.384C86.4041 5.60667 86.6094 4.91733 87.0201 4.316C87.4454 3.71467 88.0321 3.24533 88.7801 2.908C89.5428 2.556 90.4154 2.38 91.3981 2.38C92.2928 2.38 93.1288 2.534 93.9061 2.842C94.6981 3.13533 95.3288 3.56067 95.7981 4.118C96.0181 4.36733 96.1281 4.58 96.1281 4.756C96.1281 4.91733 96.0548 5.07133 95.9081 5.218C95.7614 5.35 95.6001 5.416 95.4241 5.416C95.2774 5.416 95.1528 5.36467 95.0501 5.262C94.6541 4.79267 94.1261 4.41133 93.4661 4.118C92.8061 3.82467 92.1168 3.678 91.3981 3.678C90.3274 3.678 89.4548 3.92 88.7801 4.404C88.1054 4.87333 87.7681 5.51867 87.7681 6.34C87.7681 7.19067 88.0908 7.84333 88.7361 8.298C89.3814 8.75267 90.3054 9.17067 91.5081 9.552C92.5494 9.86 93.4001 10.1753 94.0601 10.498C94.7201 10.8207 95.2554 11.2827 95.6661 11.884C96.0914 12.4707 96.3041 13.248 96.3041 14.216C96.3041 14.964 96.0841 15.646 95.6441 16.262C95.2188 16.8633 94.6174 17.34 93.8401 17.692C93.0774 18.044 92.2048 18.22 91.2221 18.22ZM110.44 2.6C110.645 2.6 110.806 2.666 110.924 2.798C111.056 2.91533 111.122 3.07667 111.122 3.282V17.318C111.107 17.5233 111.034 17.692 110.902 17.824C110.77 17.9413 110.608 18 110.418 18C110.227 18 110.066 17.934 109.934 17.802C109.802 17.67 109.736 17.5087 109.736 17.318V10.762H100.804V17.318C100.789 17.5087 100.716 17.67 100.584 17.802C100.452 17.934 100.29 18 100.1 18C99.8943 18 99.7256 17.9413 99.5936 17.824C99.4763 17.692 99.4176 17.5233 99.4176 17.318V3.282C99.4176 3.07667 99.4836 2.91533 99.6156 2.798C99.7476 2.666 99.9163 2.6 100.122 2.6C100.312 2.6 100.474 2.666 100.606 2.798C100.738 2.93 100.804 3.09133 100.804 3.282V9.486H109.736V3.282C109.736 3.09133 109.802 2.93 109.934 2.798C110.08 2.666 110.249 2.6 110.44 2.6ZM116.638 17.318C116.623 17.5087 116.55 17.67 116.418 17.802C116.286 17.934 116.124 18 115.934 18C115.728 18 115.56 17.9413 115.428 17.824C115.31 17.692 115.252 17.5233 115.252 17.318V3.282C115.252 3.07667 115.318 2.91533 115.45 2.798C115.582 2.666 115.75 2.6 115.956 2.6C116.146 2.6 116.308 2.666 116.44 2.798C116.572 2.93 116.638 3.09133 116.638 3.282V17.318ZM134.48 10.3C134.48 11.8107 134.164 13.1673 133.534 14.37C132.903 15.5727 132.03 16.5187 130.916 17.208C129.801 17.8827 128.532 18.22 127.11 18.22C125.687 18.22 124.418 17.8827 123.304 17.208C122.189 16.5187 121.316 15.5727 120.686 14.37C120.055 13.1673 119.74 11.8107 119.74 10.3C119.74 8.77467 120.055 7.41067 120.686 6.208C121.316 5.00533 122.189 4.06667 123.304 3.392C124.418 2.71733 125.687 2.38 127.11 2.38C128.532 2.38 129.801 2.71733 130.916 3.392C132.03 4.06667 132.903 5.00533 133.534 6.208C134.164 7.41067 134.48 8.77467 134.48 10.3ZM133.072 10.3C133.072 9.024 132.815 7.88733 132.302 6.89C131.803 5.878 131.099 5.09333 130.19 4.536C129.295 3.97867 128.268 3.7 127.11 3.7C125.951 3.7 124.917 3.97867 124.008 4.536C123.113 5.09333 122.409 5.878 121.896 6.89C121.397 7.88733 121.148 9.024 121.148 10.3C121.148 11.576 121.397 12.72 121.896 13.732C122.409 14.7293 123.113 15.5067 124.008 16.064C124.917 16.6213 125.951 16.9 127.11 16.9C128.268 16.9 129.295 16.6213 130.19 16.064C131.099 15.5067 131.803 14.7293 132.302 13.732C132.815 12.72 133.072 11.576 133.072 10.3ZM148.859 2.6C149.05 2.6 149.197 2.65867 149.299 2.776C149.417 2.89333 149.475 3.04 149.475 3.216V17.296C149.475 17.516 149.409 17.692 149.277 17.824C149.145 17.9413 148.984 18 148.793 18C148.691 18 148.588 17.978 148.485 17.934C148.397 17.89 148.324 17.8387 148.265 17.78L138.827 5.064V17.406C138.827 17.5673 138.761 17.7067 138.629 17.824C138.512 17.9413 138.373 18 138.211 18C138.035 18 137.889 17.9413 137.771 17.824C137.654 17.7067 137.595 17.5673 137.595 17.406V3.26C137.595 3.05467 137.654 2.89333 137.771 2.776C137.903 2.65867 138.057 2.6 138.233 2.6C138.468 2.6 138.644 2.68067 138.761 2.842L148.243 15.624V3.216C148.243 3.04 148.302 2.89333 148.419 2.776C148.537 2.65867 148.683 2.6 148.859 2.6Z" fill="#333333"/>
<path d="M54.902 13.188C55.014 13.188 55.1073 13.23 55.182 13.314C55.266 13.3887 55.308 13.482 55.308 13.594C55.308 13.7153 55.266 13.8133 55.182 13.888C55.1073 13.9627 55.014 14 54.902 14H49.652C49.5213 14 49.414 13.9627 49.33 13.888C49.246 13.8133 49.204 13.7107 49.204 13.58C49.204 13.4773 49.2413 13.3793 49.316 13.286L52.55 9.716C53.0727 9.156 53.46 8.65667 53.712 8.218C53.964 7.77 54.09 7.33133 54.09 6.902C54.09 6.26733 53.8987 5.768 53.516 5.404C53.1333 5.04 52.6013 4.858 51.92 4.858C51.4627 4.858 51.052 4.97 50.688 5.194C50.3333 5.40867 50.0673 5.74 49.89 6.188C49.7873 6.356 49.666 6.44 49.526 6.44C49.4233 6.44 49.3253 6.40267 49.232 6.328C49.1387 6.25333 49.092 6.16933 49.092 6.076C49.092 6.02 49.1107 5.95467 49.148 5.88C49.1853 5.80533 49.232 5.73067 49.288 5.656C49.5307 5.152 49.8947 4.76 50.38 4.48C50.8653 4.2 51.3973 4.06 51.976 4.06C52.9187 4.06 53.656 4.31667 54.188 4.83C54.72 5.34333 54.986 6.01533 54.986 6.846C54.986 7.35933 54.846 7.88667 54.566 8.428C54.286 8.96 53.824 9.58067 53.18 10.29L50.604 13.188H54.902Z" fill="#333333"/>
<path d="M49.5 17H55" stroke="#333333" stroke-linecap="round" stroke-linejoin="round"/>
</svg>
