<svg width="10" height="10" viewBox="0 0 10 10" fill="none" xmlns="http://www.w3.org/2000/svg">
<g clip-path="url(#clip0)">
<path d="M10.1363 4.40759C10.1025 4.20444 9.90331 4.06604 9.69141 4.09845C9.47951 4.13086 9.33516 4.32183 9.36896 4.52498C9.36933 4.52721 9.36971 4.52941 9.37012 4.53162C9.76578 6.76457 8.19839 8.88222 5.86925 9.26154C3.5401 9.64086 1.33123 8.1382 0.935568 5.90525C0.539906 3.6723 2.10732 1.55465 4.43644 1.17533C5.86881 0.94206 7.32677 1.42173 8.30789 2.44906L6.58672 2.99884C6.38311 3.06379 6.27299 3.27466 6.34072 3.46987C6.34074 3.46991 6.34076 3.46998 6.34079 3.47002C6.40854 3.66523 6.62849 3.77079 6.83211 3.70586C6.83218 3.70584 6.83222 3.70582 6.83227 3.70582L9.16344 2.96086C9.32216 2.91018 9.42922 2.76778 9.4292 2.60738V0.37249C9.4292 0.166766 9.25525 0 9.04066 0C8.82608 0 8.65213 0.166766 8.65213 0.37249V1.73316C6.65124 -0.0913381 3.48642 -0.0153212 1.58333 1.90293C-0.319758 3.82119 -0.240489 6.8553 1.76042 8.67981C3.76134 10.5043 6.92613 10.4283 8.82924 8.51003C9.91444 7.41616 10.3988 5.8961 10.1363 4.40759Z" fill="#333333"/>
</g>
<defs>
<clipPath id="clip0">
<rect width="10" height="10" fill="white"/>
</clipPath>
</defs>
</svg>
