<svg width="304" height="304" viewBox="0 0 304 304" fill="none" xmlns="http://www.w3.org/2000/svg">
<path d="M285 191.634C285 130.418 244.122 65.9894 189.339 45.0294C193.731 21.6695 175.775 0 152 0C128.243 0 110.265 21.6481 114.661 45.0294C59.1102 66.2833 19 131.354 19 191.634C7.94259 195.556 0 206.115 0 218.5V275.5C0 291.215 12.7846 304 28.5 304H275.5C291.215 304 304 291.215 304 275.5V218.5C304 206.115 296.057 195.556 285 191.634ZM152 19C162.991 19 171.957 28.4246 170.91 39.7872C158.293 37.4051 145.707 37.4045 133.09 39.7872C132.048 28.4406 140.991 19 152 19V19ZM114.661 65.6468C107.456 77.6554 101.089 93.3713 96.1269 111.491C94.7411 116.551 97.72 121.777 102.78 123.163C107.839 124.548 113.066 121.569 114.452 116.51C119.493 98.1023 125.961 82.6856 133.157 71.9263C139.594 62.301 146.286 57 152 57C161.998 57 174.034 72.4939 183.412 97.4379C185.656 103.399 187.719 109.813 189.545 116.501C190.698 120.725 194.527 123.502 198.704 123.502C204.973 123.502 209.523 117.536 207.875 111.498C203.688 96.159 197.544 79.284 189.357 65.6545C233.962 86.6721 265.872 142.214 265.999 190H38.0006C38.1277 142.208 70.0471 86.6566 114.661 65.6468V65.6468ZM285 275.5C285 280.738 280.738 285 275.5 285H28.5C23.2619 285 19 280.738 19 275.5V218.5C19 213.262 23.2619 209 28.5 209H275.5C280.738 209 285 213.262 285 218.5V275.5Z" fill="#333333"/>
<path d="M68 246.216C68 252.171 72.836 257 78.791 257C84.746 257 89.582 252.171 89.582 246.216C89.582 240.254 84.746 235.425 78.791 235.425C72.836 235.424 68 240.254 68 246.216Z" fill="#333333"/>
<path d="M141 246.216C141 252.171 145.83 257 151.785 257C157.74 257 162.576 252.171 162.576 246.216C162.576 240.254 157.74 235.425 151.785 235.425C145.83 235.425 141 240.254 141 246.216Z" fill="#333333"/>
<path d="M214 245.791C214 251.746 218.829 256.575 224.785 256.575C230.74 256.575 235.575 251.746 235.575 245.791C235.575 239.829 230.74 235 224.785 235C218.829 234.999 214 239.829 214 245.791Z" fill="#333333"/>
</svg>
