<svg width="490" height="490" viewBox="0 0 490 490" fill="none" xmlns="http://www.w3.org/2000/svg">
<g clip-path="url(#clip0)">
<path d="M385.201 260.68C385.642 260.698 386.084 260.707 386.525 260.707C386.525 260.707 386.525 260.707 386.526 260.707C398.549 260.707 408.467 254.271 411.794 244.311C416.209 231.075 407.147 216.083 391.593 210.893C389.489 210.191 387.263 209.678 384.938 209.347C386.026 207.369 386.967 205.286 387.7 203.094C392.888 187.542 386.344 171.293 373.109 166.873C370.851 166.119 368.493 165.737 366.098 165.737C355.676 165.737 346.025 172.748 341.115 183.51C318.636 154.926 284.025 136.579 245.272 136.579C179.986 136.579 126.456 188.65 122.879 254.018L0 300.692L6.947 311.13C8.094 312.855 35.918 353.375 110.191 353.375C146.636 353.375 177.211 346.287 206.778 339.433C235.496 332.776 262.62 326.488 294.342 326.488C331.583 326.488 355.908 330.381 377.37 333.817C393.977 336.476 408.32 338.772 425.098 338.772C466.687 338.772 483.183 311.848 483.865 310.703L489.954 300.47L385.201 260.68ZM347.382 250.99H143.161C143.674 245.52 144.599 240.171 145.912 234.977H344.631C345.944 240.17 346.869 245.52 347.382 250.99ZM392.822 237.979C392.302 239.535 389.596 240.708 386.526 240.708C385.004 240.708 383.448 240.446 381.904 239.931C377.106 238.329 372.667 234.251 369.206 230.104C372.129 229.412 375.367 228.904 378.578 228.904C381.101 228.904 383.35 229.227 385.262 229.865C390.816 231.717 393.49 235.977 392.822 237.979ZM358.661 193.405C360.407 188.175 364.131 185.738 366.098 185.738C366.339 185.738 366.562 185.773 366.776 185.845C368.78 186.514 370.581 191.211 368.728 196.765C367.127 201.561 363.051 205.998 358.901 209.46C357.668 204.207 357.065 198.191 358.661 193.405ZM245.271 156.58C285.62 156.58 320.597 180.417 337.338 214.978H153.204C169.945 180.417 204.923 156.58 245.271 156.58ZM425.099 318.771C409.913 318.771 396.297 316.591 380.533 314.068C358.335 310.514 333.176 306.487 294.344 306.487C260.333 306.487 230.813 313.331 202.263 319.949C173.791 326.55 144.35 333.375 110.193 333.375C77.189 333.375 55.385 324.277 42.906 316.646C38.948 314.225 35.649 311.794 32.963 309.567L134.526 270.991H356.02L457.418 309.506C450.811 314.127 440.374 318.771 425.099 318.771Z" fill="#333333"/>
</g>
<defs>
<clipPath id="clip0">
<rect width="489.954" height="489.954" fill="white"/>
</clipPath>
</defs>
</svg>
