<svg width="512" height="512" viewBox="0 0 512 512" fill="none" xmlns="http://www.w3.org/2000/svg">
<path d="M485.987 226.125H483.242C483.227 226.088 483.227 226.059 483.227 226.022C479.146 206.096 464.981 189.97 442.272 179.402C424.437 171.116 401.29 166.411 376.79 166.037C376.54 166.015 376.305 166 376.071 166H134.919C134.677 166 134.434 166.015 134.193 166.037C109.693 166.411 86.5516 171.115 68.7318 179.402C46.0155 189.971 31.8587 206.096 27.7777 226.022C27.7702 226.059 27.7626 226.088 27.7561 226.125H25.0185C19.4841 226.125 15 230.609 15 236.143C15 241.677 19.4841 246.162 25.0185 246.162H25.1951C23.8516 272.555 31.0085 296.466 46.0681 314.932C62.3763 334.91 86.6333 346.375 112.608 346.375H112.615C172.315 346.375 223.257 303.556 240.887 263.27C247.904 247.234 249.643 231.821 246.26 218.536C247.816 217.377 250.634 216.099 255.493 216.099C260.358 216.099 263.177 217.376 264.74 218.536C261.356 231.821 263.096 247.24 270.113 263.27C287.735 303.556 338.685 346.375 398.385 346.375C424.365 346.375 448.615 334.91 464.938 314.932C479.999 296.466 487.148 272.555 485.812 246.162H485.989C491.508 246.162 496 241.678 496 236.143C495.998 230.61 491.507 226.125 485.987 226.125ZM222.522 255.241C207.234 290.184 161.935 326.323 112.607 326.338C92.6722 326.323 74.0811 317.559 61.59 302.249C46.6609 283.96 41.6273 258.316 47.4097 230.044C50.2065 216.393 60.225 205.464 77.1851 197.575C93.1777 190.14 114.551 186.037 137.355 186.037C173.039 186.037 206.294 196.085 220.1 211.028C232.951 224.944 227.131 244.701 222.522 255.241ZM276.182 197.428C275.257 198.419 274.405 199.432 273.583 200.474C269.025 197.898 263.058 196.063 255.492 196.063C247.925 196.063 241.966 197.898 237.415 200.474C236.593 199.432 235.734 198.412 234.816 197.428C230.853 193.135 226.141 189.354 220.893 186.037H290.112C284.857 189.354 280.145 193.135 276.182 197.428ZM449.406 302.249C436.914 317.559 418.316 326.338 398.383 326.338C349.061 326.323 303.761 290.185 288.467 255.241C283.858 244.701 278.045 224.943 290.904 211.028C304.701 196.085 337.964 186.037 373.635 186.037C396.446 186.037 417.817 190.14 433.818 197.575C450.772 205.464 460.798 216.393 463.587 230.044C469.37 258.317 464.335 283.96 449.406 302.249Z" fill="#333333"/>
</svg>
