<svg width="480" height="481" viewBox="0 0 480 481" fill="none" xmlns="http://www.w3.org/2000/svg">
<g clip-path="url(#clip0)">
<path d="M330.369 37.1105V0.478516H149.631V37.1105C146.893 46.3705 132.914 95.7235 132.914 137.841C132.914 162.447 137.894 188.453 142.711 213.601C146.775 234.822 150.614 254.866 150.614 270.619C150.614 308.609 162.801 423.805 168.041 471.569L169.019 480.479H224.41L224.927 471.025C225.198 466.061 231.575 349.021 231.575 309.421C231.575 305.953 231.556 302.027 231.536 297.732C231.388 266.85 231.08 202.361 240 167.621C248.92 202.36 248.612 266.85 248.464 297.731C248.444 302.027 248.425 305.953 248.425 309.42C248.425 349.02 254.802 466.061 255.074 471.024L255.591 480.478H310.982L311.96 471.568C317.2 423.803 329.387 308.608 329.387 270.618C329.387 254.865 333.226 234.821 337.29 213.6C342.106 188.452 347.087 162.446 347.087 137.84C347.086 95.7235 333.107 46.3705 330.369 37.1105ZM319.464 75.9865C308.526 71.3015 298.406 61.1435 294.752 48.5775H312.824C314.508 54.7225 317.017 64.4465 319.464 75.9865ZM169.631 20.4785H310.369V28.5775H169.631V20.4785ZM185.248 48.5775C181.595 61.1405 171.478 71.2965 160.543 75.9835C162.989 64.4475 165.497 54.7245 167.178 48.5775H185.248ZM211.535 297.828C211.555 302.088 211.574 305.982 211.574 309.421C211.574 342.02 207.009 431.189 205.462 460.479H186.95C182.085 415.604 170.614 306.018 170.614 270.62C170.614 252.969 166.602 232.019 162.354 209.84C157.713 185.608 152.914 160.55 152.914 137.842C152.914 124.964 154.386 111.133 156.441 98.0785C168.875 95.9955 180.544 89.4205 189.96 79.0475C197.945 70.2495 203.467 59.3675 205.647 48.5785H230V139.641C212.442 166.908 211.237 235.339 211.535 297.828ZM317.646 209.84C313.398 232.019 309.386 252.969 309.386 270.62C309.386 306.018 297.915 415.604 293.05 460.479H274.538C272.99 431.189 268.425 342.02 268.425 309.421C268.425 305.982 268.444 302.087 268.464 297.827C268.762 235.339 267.557 166.908 250 139.64V48.5775H274.354C276.533 59.3665 282.055 70.2475 290.04 79.0465C299.457 89.4205 311.128 95.9965 323.564 98.0785C325.617 111.125 327.085 124.952 327.085 137.842C327.086 160.55 322.287 185.607 317.646 209.84Z" fill="#333333"/>
</g>
<defs>
<clipPath id="clip0">
<rect y="0.478516" width="480" height="480" fill="white"/>
</clipPath>
</defs>
</svg>
