<svg width="482" height="482" viewBox="0 0 482 482" fill="none" xmlns="http://www.w3.org/2000/svg">
<g clip-path="url(#clip0)">
<path d="M480.506 429.573C480.432 428.735 472.943 344.763 459.709 258.132C451.911 207.078 443.663 165.038 435.194 133.18C420.158 76.6152 407.213 62.8682 398.783 57.4492C375.66 42.5822 320.163 18.1112 317.812 17.0772L314.96 15.8232L311.901 16.4092C311.823 16.4242 310.459 16.6832 308.139 17.1052L306.583 16.4502C306.57 16.4802 306.418 16.8402 306.152 17.4642C292.798 19.8542 259.38 25.4742 240.543 25.4742C221.721 25.4742 188.293 19.8542 174.935 17.4642C174.669 16.8402 174.517 16.4812 174.504 16.4502L172.949 17.1052C170.628 16.6832 169.264 16.4232 169.185 16.4092L166.126 15.8232L163.275 17.0772C160.924 18.1112 105.427 42.5822 82.304 57.4492C67.893 66.7142 45.899 97.5972 21.378 258.133C8.148 344.764 0.658 428.736 0.585 429.573L0 436.183L5.862 439.29C6.713 439.74 26.973 450.328 51.604 450.328C59.473 450.328 67.024 449.243 74.049 447.101L80.194 445.228L81.045 438.861C90.351 369.249 106.051 268.48 118.668 217.285C120.339 235.561 120.423 262.357 117.563 299.172C113.566 350.613 104.833 407.365 95.833 440.393L93.429 449.215L102.002 452.397C103.418 452.922 137.863 465.269 240.546 465.269C343.229 465.269 377.674 452.922 379.09 452.397L387.663 449.215L385.259 440.393C376.258 407.366 367.525 350.614 363.527 299.172C360.668 262.361 360.752 235.562 362.423 217.285C375.039 268.479 390.739 369.248 400.045 438.861L400.897 445.228L407.042 447.101C414.067 449.243 421.619 450.328 429.488 450.328C454.121 450.328 474.38 439.74 475.23 439.29L481.092 436.183L480.506 429.573ZM240.545 45.4732C256.197 45.4732 279.921 42.1172 296.525 39.4082C291.679 50.1922 285.47 63.6542 278.766 77.2952C255.416 124.803 244.347 137.376 240.545 140.628C236.745 137.377 225.685 124.814 202.361 77.3682C195.646 63.7092 189.423 50.2162 184.567 39.4082C201.17 42.1172 224.893 45.4732 240.545 45.4732ZM137.503 300.722C142.654 234.424 139.471 192.649 128.042 176.558L119.241 164.167L111.345 177.153C108.194 182.335 98.606 198.104 78.606 319.897C70.831 367.249 64.453 412.665 62.148 429.424C58.773 430.025 55.247 430.327 51.606 430.327C39.107 430.327 27.753 426.784 21.169 424.218C23.259 402.236 30.237 332.616 41.153 261.152C64.613 107.556 85.313 79.2932 93.123 74.2712C109.698 63.6152 145.94 46.8322 162.618 39.2872C168.258 52.0522 176.97 71.2662 186.465 90.3432C208.891 135.401 221.756 152.104 230.545 158.146V445.225C171.626 444.723 134.864 439.854 117.598 436C125.987 401.221 133.782 348.616 137.503 300.722ZM429.487 430.328C425.845 430.328 422.319 430.025 418.944 429.425C416.638 412.665 410.261 367.249 402.486 319.898C382.486 198.105 372.897 182.335 369.746 177.154L361.85 164.168L353.049 176.559C341.619 192.65 338.436 234.425 343.587 300.723C347.309 348.617 355.103 401.218 363.49 435.996C346.18 439.858 309.427 444.723 250.545 445.225V158.145C259.334 152.103 272.198 135.4 294.625 90.3422C304.12 71.2652 312.832 52.0522 318.473 39.2862C335.152 46.8322 371.393 63.6142 387.967 74.2702C395.776 79.2912 416.47 107.541 439.926 261.065C450.846 332.538 457.831 402.22 459.923 424.217C453.332 426.787 441.982 430.328 429.487 430.328Z" fill="#333333"/>
<path d="M274.582 156.332C268.627 156.332 263.798 161.161 263.798 167.119C263.798 173.078 268.627 177.907 274.582 177.907C280.544 177.907 285.373 173.078 285.373 167.119C285.374 161.161 280.544 156.332 274.582 156.332Z" fill="#333333"/>
<path d="M274.582 219.738C268.627 219.738 263.798 224.568 263.798 230.523C263.798 236.478 268.627 241.314 274.582 241.314C280.544 241.314 285.373 236.478 285.373 230.523C285.374 224.568 280.544 219.738 274.582 219.738Z" fill="#333333"/>
<path d="M274.582 283.145C268.627 283.145 263.798 287.981 263.798 293.936C263.798 299.891 268.627 304.727 274.582 304.727C280.544 304.727 285.373 299.891 285.373 293.936C285.374 287.981 280.544 283.145 274.582 283.145Z" fill="#333333"/>
<path d="M274.582 346.557C268.627 346.557 263.798 351.387 263.798 357.342C263.798 363.297 268.627 368.133 274.582 368.133C280.544 368.133 285.373 363.297 285.373 357.342C285.373 351.387 280.544 346.557 274.582 346.557Z" fill="#333333"/>
<path d="M274.582 409.962C268.627 409.962 263.798 414.791 263.798 420.747C263.798 426.702 268.627 431.537 274.582 431.537C280.544 431.537 285.373 426.702 285.373 420.747C285.374 414.791 280.544 409.962 274.582 409.962Z" fill="#333333"/>
</g>
<defs>
<clipPath id="clip0">
<rect width="481.091" height="481.091" fill="white"/>
</clipPath>
</defs>
</svg>
