<svg width="559" height="533" viewBox="0 0 559 533" fill="none" xmlns="http://www.w3.org/2000/svg">
<path d="M519.507 455.751C519.433 454.913 511.944 370.941 498.71 284.31C490.912 233.256 482.664 191.215 474.195 159.357C459.159 102.792 446.214 89.045 437.784 83.626C419.628 71.953 381.515 54.36 364.841 46.839C364.812 46.318 364.787 45.959 364.776 45.796L362.832 45.935C359.421 44.403 357.24 43.442 356.814 43.254L353.962 42L350.903 42.586C350.43 42.677 303.345 51.65 279.546 51.65C255.766 51.65 208.661 42.676 208.189 42.586L205.129 42L202.278 43.254C201.852 43.442 199.671 44.403 196.259 45.935L194.317 45.796C194.305 45.959 194.281 46.317 194.251 46.839C177.577 54.36 139.464 71.952 121.308 83.626C106.898 92.891 84.903 123.775 60.382 284.311C47.148 370.941 39.659 454.913 39.585 455.751L39 462.36L44.863 465.467C45.714 465.918 65.973 476.506 90.604 476.506C98.473 476.506 106.025 475.42 113.05 473.279L119.195 471.406L120.047 465.039C129.353 395.427 145.053 294.658 157.669 243.463C159.34 261.739 159.425 288.535 156.565 325.35C152.568 376.791 143.835 433.543 134.834 466.57L132.43 475.393L141.003 478.575C142.419 479.101 176.864 491.447 279.547 491.447C382.23 491.447 416.675 479.101 418.091 478.575L426.664 475.393L424.26 466.57C415.259 433.543 406.526 376.791 402.529 325.35C399.669 288.536 399.754 261.74 401.425 243.463C414.041 294.657 429.741 395.425 439.047 465.039L439.899 471.406L446.043 473.279C453.068 475.42 460.62 476.506 468.489 476.506C493.122 476.506 513.381 465.918 514.231 465.467L520.093 462.36L519.507 455.751ZM345.014 63.982C344.427 87.056 340.2 128.339 318.808 151.288C308.565 162.276 295.722 167.617 279.546 167.617C263.37 167.617 250.527 162.276 240.284 151.288C218.89 128.338 214.665 87.053 214.079 63.982C229.698 66.712 260.56 71.65 279.546 71.65C298.532 71.65 329.395 66.713 345.014 63.982ZM468.487 456.506C464.845 456.506 461.319 456.203 457.944 455.602C455.638 438.843 449.261 393.427 441.486 346.075C421.486 224.283 411.897 208.513 408.746 203.331L400.85 190.345L392.049 202.735C380.619 218.826 377.436 260.601 382.587 326.899C386.309 374.793 394.103 427.394 402.49 462.172C384.219 466.25 344.302 471.445 279.545 471.445C214.749 471.445 174.823 466.243 156.599 462.176C164.987 427.398 172.782 374.792 176.503 326.898C181.654 260.6 178.471 218.825 167.041 202.734L158.24 190.343L150.344 203.329C147.194 208.511 137.606 224.28 117.606 346.073C109.83 393.425 103.453 438.841 101.147 455.6C97.772 456.201 94.246 456.504 90.604 456.504C78.106 456.504 66.752 452.961 60.167 450.394C62.257 428.412 69.235 358.792 80.151 287.328C103.613 133.733 124.313 105.47 132.124 100.449C146.539 91.181 175.821 77.284 194.182 68.854C195.276 95.37 201.08 138.527 225.621 164.888C239.661 179.97 257.805 187.618 279.547 187.618C301.289 187.618 319.433 179.971 333.473 164.888C358.014 138.527 363.819 95.369 364.911 68.854C383.269 77.282 412.547 91.177 426.969 100.449C434.778 105.469 455.472 133.72 478.928 287.243C489.848 358.715 496.833 428.398 498.925 450.395C492.333 452.965 480.982 456.506 468.487 456.506Z" fill="#333333"/>
</svg>
