<svg width="512" height="512" viewBox="0 0 512 512" fill="none" xmlns="http://www.w3.org/2000/svg">
<path d="M396.603 165.332C396.55 164.746 396.447 164.174 396.294 163.612V129.047C396.294 123.159 391.522 118.387 385.634 118.387H126.203C120.314 118.387 115.542 123.159 115.542 129.047V165.78L110.496 224.1C110.418 224.619 110.336 225.141 110.336 225.685C110.336 225.728 110.347 225.763 110.347 225.806L98.638 361.145C98.1654 366.592 101.893 371.51 107.262 372.537L216.725 393.421C217.396 393.549 218.064 393.609 218.729 393.609C223.288 393.609 227.449 390.674 228.878 386.186L256.09 300.81L283.175 385.753C284.81 390.877 290.023 393.968 295.289 392.995L404.691 372.544C410.078 371.539 413.82 366.613 413.354 361.155L396.603 165.332ZM376.192 176.902L379.362 213.905C360.848 209.904 346.239 195.366 342.103 176.902H376.192ZM374.973 139.708V155.581H136.863V139.708H374.973ZM135.982 176.902H168.575C164.552 194.858 150.608 209.069 132.816 213.518L135.982 176.902ZM300.63 370.309L266.246 262.474C264.839 258.054 260.728 255.051 256.09 255.051C251.45 255.051 247.342 258.054 245.934 262.474L211.437 370.707L120.712 353.398L130.907 235.564C161.379 231.221 185.543 207.271 190.208 176.902H245.437V229.683C245.437 235.571 250.209 240.343 256.097 240.343C261.986 240.343 266.758 235.571 266.758 229.683V176.902H320.473C325.213 207.757 350.077 232.024 381.238 235.787L391.298 353.359L300.63 370.309Z" fill="#333333"/>
</svg>
