<svg width="480" height="480" viewBox="0 0 480 480" fill="none" xmlns="http://www.w3.org/2000/svg">
<path d="M250.445 42L250.435 10.4348C250.435 4.67478 245.76 0 240 0C234.24 0 229.565 4.67478 229.565 10.4348V42C102.052 47.4887 0 152.901 0 281.739C0 287.499 4.67478 292.174 10.4348 292.174C34.1426 292.174 46.4765 278.723 56.3687 267.913C65.3217 258.157 72.3861 250.435 86.9113 250.435C101.447 250.435 108.511 258.146 117.464 267.913C125.572 276.762 135.412 287.249 151.67 290.817C153.141 291.61 154.748 292.174 156.522 292.174C157.158 292.174 157.701 291.923 158.306 291.819C159.986 291.965 161.603 292.174 163.419 292.174C187.137 292.174 199.471 278.723 209.374 267.923C215.875 260.828 221.416 254.87 229.513 252.104V427.826C229.513 428.233 229.534 428.64 229.586 429.037C230.223 457.242 253.377 480 281.739 480C310.508 480 333.913 456.595 333.913 427.826C333.913 422.066 329.249 417.391 323.478 417.391C317.708 417.391 313.043 422.066 313.043 427.826C313.043 445.085 298.998 459.13 281.739 459.13C264.48 459.13 250.435 445.085 250.435 427.826C250.435 427.461 250.424 427.096 250.383 426.741V252.104C258.47 254.87 264.01 260.828 270.501 267.913C280.404 278.723 292.727 292.174 316.445 292.174C318.292 292.174 319.951 291.955 321.663 291.798C322.268 291.923 322.831 292.174 323.478 292.174C325.294 292.174 326.911 291.59 328.404 290.776C344.546 287.165 354.344 276.73 362.421 267.934C371.374 258.157 378.459 250.435 393.016 250.435C407.572 250.435 414.637 258.157 423.6 267.923C433.513 278.734 445.847 292.174 469.565 292.174C475.336 292.174 480 287.499 480 281.739C480 152.911 377.958 47.4991 250.445 42ZM146.275 266.358C141.475 263.207 137.405 258.793 132.856 253.826C122.953 243.016 110.63 229.565 86.9113 229.565C63.1931 229.565 50.88 243.016 40.9774 253.816C34.56 260.817 29.113 266.765 21.193 269.572C26.9426 164.932 106.518 79.8783 208.539 65.113C183.329 93.0052 149.103 151.722 146.275 266.358ZM285.882 253.826C275.979 243.016 263.666 229.565 239.948 229.565C216.23 229.565 203.896 243.016 193.983 253.816C185.864 262.685 179.217 269.791 167.207 271.043C169.837 127.492 223.617 76.6644 240 64.5913C256.456 76.727 310.174 127.586 312.793 271.054C300.699 269.843 294.031 262.717 285.882 253.826ZM438.981 253.826C429.068 243.016 416.744 229.565 393.016 229.565C369.277 229.565 356.943 243.016 347.03 253.816C342.522 258.741 338.473 263.134 333.725 266.285C330.887 151.701 296.671 93.0052 271.461 65.113C373.471 79.8783 453.047 164.943 458.797 269.572C450.866 266.776 445.409 260.828 438.981 253.826Z" fill="#333333"/>
</svg>
