<svg width="338" height="347" viewBox="0 0 338 347" fill="none" xmlns="http://www.w3.org/2000/svg">
<path d="M284.528 224.33H268.734C236.062 224.33 199.369 159.914 199.369 112.505V31.1776C199.369 25.5633 194.935 21.0117 189.466 21.0117H139.955C136.204 21.0117 132.776 23.1872 131.098 26.6314L123.933 41.3435H29.7105C24.2418 41.3435 19.8083 45.8951 19.8083 51.5094V82.6848C19.8083 139.783 0.300215 120.35 0.00380839 212.787C0.00380839 213.536 -0.495924 208.111 9.95357 316.822C10.454 322.024 14.7159 325.989 19.8083 325.989H70.6899C75.6707 325.989 79.8765 322.191 80.5109 317.12L89.7583 243.267C98.0029 248.185 105.936 254.285 112.997 261.858C156.509 308.528 164.757 325.99 199.368 325.99C268.706 325.99 327.266 316.107 329.725 315.686C334.5 314.868 337.999 310.628 337.999 305.658V279.227C338 248.956 314.012 224.33 284.528 224.33ZM110.249 153.168C104.789 153.168 100.346 148.608 100.346 143.002V61.6753H120.151V143.002C120.151 148.608 115.709 153.168 110.249 153.168ZM39.6127 82.6841V61.6746H80.5419V143.002C80.5419 156.255 88.8208 167.554 100.346 171.751V226.035C69.9472 207.638 36.4618 203.597 19.8947 202.788C21.2698 126.318 39.6127 143.284 39.6127 82.6841V82.6841ZM61.9792 305.657H28.781L20.8592 223.239C32.2111 223.961 51.2848 226.366 70.9401 234.09L61.9792 305.657ZM318.195 296.906C299.649 299.608 252.223 305.657 199.369 305.657C180.204 305.657 174.704 300.21 148.71 271.281C127.014 247.137 124.116 244.347 120.151 240.748V171.752C131.676 167.555 139.955 156.255 139.955 143.002V53.9092L146.076 41.3435H179.564V112.505C179.564 166.959 220.923 244.661 268.734 244.661H284.528C303.093 244.661 318.195 260.166 318.195 279.225V296.906Z" fill="#333333"/>
</svg>
