<svg width="480" height="480" viewBox="0 0 480 480" fill="none" xmlns="http://www.w3.org/2000/svg">
<path d="M450 90H30C13.458 90 0 103.458 0 120V360C0 376.542 13.458 390 30 390H450C466.542 390 480 376.542 480 360V120C480 103.458 466.542 90 450 90ZM30 110H450C455.514 110 460 114.486 460 120V218.399C440.78 229.312 367.545 267.549 273.008 275.203V255.519C273.008 245.727 265.041 237.76 255.248 237.76H224.751C214.959 237.76 206.992 245.727 206.992 255.519V275.203C112.64 267.555 39.253 229.301 20 218.393V120C20 114.486 24.486 110 30 110ZM253.008 257.76V315.35H226.992V257.76H253.008ZM450 370H30C24.486 370 20 365.514 20 360V241.205C30.389 246.666 45.658 254.083 64.962 261.751C97.603 274.715 148.11 290.695 206.992 295.256V317.591C206.992 327.383 214.959 335.35 224.751 335.35H255.248C265.041 335.35 273.008 327.383 273.008 317.591V295.256C331.889 290.695 382.397 274.716 415.037 261.751C434.342 254.083 449.611 246.666 460 241.204V360C460 365.514 455.514 370 450 370Z" fill="#333333"/>
</svg>
