<svg width="482" height="482" viewBox="0 0 482 482" fill="none" xmlns="http://www.w3.org/2000/svg">
<g clip-path="url(#clip0)">
<path d="M302.002 84.9404V148.641H461.268V197.427C402.29 199.334 373.142 218.16 339.692 239.795C321.676 251.448 303.046 263.497 277.283 274.622L275.235 275.508C248.915 286.9 168.821 321.567 138.729 291.777L135.376 288.457L130.682 288.936C102.642 291.789 73.232 290.723 55.66 290.088C49.925 289.88 45.395 289.716 42.09 289.716C25.579 289.716 15.229 304.985 9.453 317.793C4.06 329.753 1.579 341.565 1.476 342.061L0 349.183L6.32 352.782C9.443 354.559 83.957 396.328 184.55 396.328C227.336 396.328 259.116 379.979 292.761 362.671C305.483 356.126 318.704 349.324 333.256 342.986L354.539 390.002H450.118L481.268 307.224V207.258V197.258V148.643V138.643V84.9404H302.002ZM436.274 370.001H367.439L351.82 335.498C379.935 325.098 413.348 317.114 456.728 315.645L436.274 370.001ZM461.268 295.51C376.02 297.347 327.026 322.551 283.612 344.885C250.817 361.757 222.493 376.327 184.55 376.327C106.095 376.327 42.991 348.739 22.918 338.863C27.026 325.11 34.79 309.716 42.09 309.716C45.034 309.716 49.404 309.874 54.937 310.074C72.115 310.696 100.284 311.716 128.267 309.253C145.941 323.85 173.076 327.315 209.024 319.545C238.624 313.148 267.608 300.603 283.18 293.863L285.213 292.984C312.507 281.198 332.72 268.124 350.554 256.589C382.579 235.875 408.263 219.265 461.268 217.425V295.51ZM322.002 104.94H461.268V128.641H322.002V104.94Z" fill="#333333"/>
</g>
<defs>
<clipPath id="clip0">
<rect width="481.268" height="481.268" fill="white"/>
</clipPath>
</defs>
</svg>
