<svg width="400" height="400" viewBox="0 0 400 400" fill="none" xmlns="http://www.w3.org/2000/svg">
<path d="M398.401 143.694C394.052 134.951 355.324 57.8829 335.05 44.0975C315.547 30.8336 267.768 10.3818 265.743 9.51749L263.41 8.52197L260.919 8.99939C260.516 9.07661 220.324 16.7369 199.999 16.7369C179.69 16.7369 139.483 9.07661 139.08 8.99939L136.589 8.52197L134.257 9.51749C132.232 10.3818 84.4524 30.8336 64.948 44.0967C44.6755 57.8837 5.94821 134.951 1.59914 143.694L0 146.908L1.24627 150.274C1.76769 151.683 14.6804 184.897 71.5911 192.481L76.5239 193.138L94.0016 168.829C101.864 213.772 90.6472 319.601 76.763 370.544L74.767 377.868L81.8851 380.51C83.0915 380.959 112.441 391.478 200 391.478C287.56 391.478 316.908 380.959 318.114 380.51L325.232 377.868L323.236 370.544C309.353 319.599 298.137 213.771 305.998 168.83L323.475 193.138L328.408 192.481C385.319 184.897 398.232 151.684 398.754 150.274L400 146.908L398.401 143.694ZM254.423 27.0458C254.372 44.7692 251.899 83.4459 232.599 104.15C224.094 113.273 213.431 117.708 200 117.708C186.569 117.708 175.906 113.273 167.401 104.15C148.1 83.4442 145.628 44.7659 145.577 27.0458C159.268 29.4121 184.366 33.3427 200 33.3427C215.634 33.3427 240.732 29.4121 254.423 27.0458ZM373.338 156.999C366.196 163.376 353.187 171.507 331.089 175.281L301.735 134.45L295.542 146.562C289.573 158.237 283.53 186.376 288.646 254.132C291.694 294.5 298.031 337.51 305.149 366.864C292.36 369.751 261.063 374.871 200 374.871C144.442 374.871 110.304 370.389 94.8401 366.908C101.963 337.554 108.305 294.519 111.355 254.132C116.471 186.377 110.429 158.237 104.459 146.562L98.2659 134.45L68.9093 175.283C35.2335 169.562 22.3606 153.943 18.3337 147.364C34.3932 115.55 62.1922 66.0538 74.2871 57.8297C86.8278 49.3018 113.479 36.9147 128.963 29.985C129.274 50.9873 132.97 91.5346 155.226 115.443C166.884 127.965 181.949 134.315 200.001 134.315C218.053 134.315 233.118 127.965 244.775 115.443C267.033 91.5354 270.728 50.9881 271.04 29.985C286.522 36.9155 313.174 49.3026 325.715 57.8305C337.8 66.048 365.591 115.524 381.656 147.342C380.207 149.665 377.608 153.185 373.338 156.999Z" fill="#333333"/>
</svg>
