<svg width="512" height="512" viewBox="0 0 512 512" fill="none" xmlns="http://www.w3.org/2000/svg">
<path d="M406.113 74.752H363.304V29.17C363.304 13.086 350.219 0 334.134 0H223.573C207.488 0 194.402 13.086 194.402 29.17V227.994L109.791 290.879C109.781 290.886 109.771 290.894 109.761 290.9L109.674 290.966C109.643 290.989 109.616 291.018 109.586 291.041C109.3 291.26 109.027 291.494 108.766 291.742C108.729 291.776 108.686 291.805 108.65 291.841C79.4427 320.392 69.6647 354.545 81.8247 385.544C92.3407 412.351 117.278 431.093 146.927 435.267C147.052 444.574 148.878 453.783 152.488 462.64C164.709 492.625 194.625 512 228.702 512C244.529 512 260.361 507.937 275.799 499.94C275.962 499.859 276.123 499.776 276.281 499.686C276.852 499.387 277.424 499.095 277.993 498.786C278.481 498.52 278.946 498.216 279.383 497.873L431.451 378.781C433.871 376.885 435.285 373.982 435.285 370.908V103.922C435.283 87.838 422.197 74.752 406.113 74.752ZM214.402 29.17C214.402 24.113 218.516 20 223.573 20H334.134C339.19 20 343.304 24.113 343.304 29.17V74.752H214.402V29.17ZM210.367 241.048C212.906 239.161 214.402 236.185 214.402 233.022V94.752H267.866C266.908 97.638 266.381 100.719 266.381 103.922V302.637L196.73 352.551C191.878 340.645 184.613 329.314 175.547 319.725C165.015 308.588 152.318 300.139 138.149 294.722L210.367 241.048ZM149.224 415.366C127.125 411.979 108.109 397.785 100.442 378.24C91.8457 356.327 98.6377 331.622 119.034 309.828C154.827 317.695 173.209 345.362 179.89 364.697C179.715 364.845 179.527 364.978 179.362 365.139C178.324 366.154 177.316 367.179 176.326 368.21C176.239 368.303 176.149 368.392 176.066 368.487C162.272 382.948 153.199 399.028 149.224 415.366ZM262.586 484.154C251.323 489.362 239.951 492.001 228.7 492.001C202.791 492 180.145 477.513 171.007 455.091C167.463 446.395 166.22 437.304 167.161 428.137C167.277 427.571 167.353 426.989 167.369 426.391C167.37 426.377 167.368 426.364 167.368 426.35C169.227 412.441 176.12 398.408 187.716 385.351C211.148 387.466 232.533 399.301 246.922 418.282C261.269 437.208 266.869 460.981 262.586 484.154ZM283.986 468.863C283.99 446.456 276.731 424.497 262.86 406.199C248.971 387.878 229.804 374.942 208.27 368.886L282.207 315.901C284.828 314.023 286.382 310.997 286.382 307.773V169.503H415.283V285.113C381.966 288.809 353.015 309.361 339.879 339.418C328.256 366.015 331.541 394.854 348.396 418.421L283.986 468.863ZM415.283 366.038L364.144 406.088C351.715 388.318 349.487 367.378 358.205 347.429C368.174 324.617 389.953 308.815 415.283 305.27V366.038ZM415.283 149.504H286.382V103.922C286.382 98.865 290.495 94.752 295.551 94.752H406.114C411.169 94.752 415.283 98.865 415.283 103.922V149.504V149.504Z" fill="#333333"/>
</svg>
