<svg width="482" height="482" viewBox="0 0 482 482" fill="none" xmlns="http://www.w3.org/2000/svg">
<g clip-path="url(#clip0)">
<path d="M471.268 141.099C405.463 141.099 374.984 160.813 339.692 183.639C321.676 195.291 303.046 207.341 277.284 218.466L275.23 219.355C260.288 225.822 232.474 237.858 204.794 243.84C180.481 249.095 161.687 248.63 148.688 242.494C151.643 240.79 154.461 238.731 156.96 236.233C168.554 224.638 169.962 207.177 160.095 197.308C155.817 193.032 149.915 190.676 143.478 190.676C135.511 190.676 127.381 194.237 121.172 200.446C119.539 202.079 118.097 203.852 116.815 205.707C115.532 203.852 114.09 202.079 112.457 200.445C106.248 194.237 98.118 190.677 90.151 190.677C83.713 190.677 77.812 193.032 73.532 197.311C64.142 206.703 64.971 222.972 75.072 234.516C67.724 234.367 61.12 234.127 55.661 233.93C49.926 233.722 45.396 233.558 42.091 233.558C25.58 233.558 15.23 248.827 9.454 261.635C4.061 273.595 1.58 285.407 1.477 285.903L0 293.024L6.32 296.623C9.443 298.4 83.957 340.169 184.55 340.169C227.336 340.169 259.116 323.82 292.761 306.512C305.483 299.967 318.704 293.165 333.256 286.828L354.539 333.844H450.118L481.268 251.066V141.099H471.268ZM135.313 214.588C138.197 211.704 141.421 210.677 143.477 210.677C144.253 210.677 145.312 210.812 145.953 211.451C147.447 212.945 146.958 217.951 142.818 222.091C139.242 225.666 133.613 227.815 128.354 229.058C129.597 223.807 131.745 218.155 135.313 214.588ZM87.673 211.453C88.315 210.811 89.374 210.677 90.15 210.677C92.206 210.677 95.43 211.704 98.314 214.587C101.891 218.164 104.039 223.797 105.281 229.059C100.019 227.817 94.387 225.668 90.81 222.091C86.669 217.951 86.181 212.945 87.673 211.453ZM436.274 313.843H367.439L351.82 279.34C379.935 268.94 413.348 260.956 456.728 259.487L436.274 313.843ZM461.268 239.352C376.02 241.189 327.026 266.393 283.612 288.727C250.817 305.599 222.493 320.169 184.55 320.169C106.095 320.169 42.991 292.581 22.918 282.705C27.026 268.952 34.79 253.557 42.09 253.557C45.034 253.557 49.404 253.715 54.937 253.915C72.116 254.537 100.285 255.557 128.266 253.094C145.94 267.691 173.073 271.154 209.019 263.388C238.617 256.991 267.602 244.448 283.174 237.708L285.214 236.826C312.507 225.039 332.721 211.966 350.554 200.431C382.579 179.718 408.262 163.107 461.268 161.267V239.352Z" fill="#333333"/>
</g>
<defs>
<clipPath id="clip0">
<rect width="481.268" height="481.268" fill="white"/>
</clipPath>
</defs>
</svg>
