<svg width="512" height="512" viewBox="0 0 512 512" fill="none" xmlns="http://www.w3.org/2000/svg">
<path d="M480.325 336.705L416.976 106.739C407.43 69.424 378.793 39.051 341.478 27.769L313.775 19.304C313.084 18.74 312.38 18.263 311.649 17.899L305.03 11.28C293.749 0 272.922 0 255.566 0C234.739 0 216.515 0.868 206.102 11.281L199.63 17.753L170.523 26.901C134.076 38.182 104.57 68.555 95.0252 105.87L31.6752 336.705C29.9392 343.647 30.8072 351.458 35.1462 357.532C39.4852 363.606 45.5602 367.946 53.3702 368.813L87.2142 373.152C100.231 374.888 113.248 366.21 115.851 353.193L148.827 220.42L160.108 311.539L108.04 483.363C108.04 485.099 108.04 487.702 109.776 489.438C110.644 492.041 112.379 492.909 114.983 493.777L118.454 494.645C154.034 504.191 191.349 509.398 229.532 511.133L255.566 512C301.559 512 348.42 505.925 392.678 494.644H397.017C398.753 493.776 401.356 492.041 402.224 490.305C403.092 487.702 403.96 485.966 403.092 483.363L351.024 311.539L362.305 221.288L395.281 353.193C397.884 366.21 410.901 374.888 423.918 373.152L458.63 369.681C465.572 368.813 472.515 364.474 476.854 358.4C481.193 351.458 482.061 344.515 480.325 336.705ZM200.895 44.258L240.318 155.088L246.864 173.634L239.946 194.387L187.878 137.112L202.631 98.061C203.499 95.458 203.499 91.986 201.763 90.251C200.027 88.516 197.424 86.78 194.821 86.78H168.787L200.895 44.258ZM316.312 87.647H315.444C312.841 87.647 310.237 88.515 308.502 91.118C306.766 92.854 306.766 96.325 307.634 98.928L323.254 137.111L251.266 215.098L264.244 177.03C264.964 175.59 265.077 174.15 264.603 172.71L310.098 44.65L320.65 58.72L341.478 87.648H316.312V87.647ZM218.251 23.43C224.326 17.355 243.417 17.355 255.566 17.355C267.715 17.355 286.807 17.355 292.013 23.43L297.22 28.637L255.617 147.38L241.679 107.89L213.911 28.637L218.251 23.43ZM176.597 315.01C176.597 314.142 176.597 312.407 176.597 311.539L159.241 172.692C159.241 168.353 155.77 164.882 151.431 164.882C147.96 164.882 143.621 167.485 142.753 171.824L98.4952 348.854C97.6272 353.193 93.2882 356.664 88.9492 355.796L54.2372 351.457C51.6342 351.457 49.0302 349.721 48.1622 347.986C47.2942 346.251 46.4262 343.647 47.2942 341.044L110.643 110.21C119.321 78.102 143.619 52.935 174.86 43.39L180.935 42.522L144.488 91.119C142.752 93.722 141.885 96.326 143.62 99.797C145.355 103.268 147.959 105.004 151.43 105.004H182.671L169.654 136.245C168.786 138.848 168.786 142.32 171.39 144.923L233.315 214.279L222.528 246.64C221.601 247.823 221.054 249.082 220.901 250.679C220.9 250.684 220.9 250.689 220.899 250.695C220.897 250.713 220.895 250.73 220.894 250.748C220.856 251.053 220.854 251.358 220.854 251.662V492.909C189.613 491.173 158.373 485.967 128 479.024L176.597 315.01ZM461.234 347.119C459.498 348.855 457.763 350.59 455.159 350.59L421.315 354.929C416.976 354.929 412.637 352.326 411.769 347.987L367.511 170.956C366.643 166.617 363.172 164.014 358.833 164.014C355.362 164.882 351.891 167.485 351.023 171.824L333.667 310.671C332.799 311.539 333.667 313.274 333.667 314.142L383.131 479.023C341.477 488.569 298.087 493.776 255.565 493.776H238.21V381.831H246.888C246.888 387.038 250.359 390.509 255.566 390.509C260.773 390.509 264.244 387.038 264.244 381.831V364.475C264.244 359.268 260.773 355.797 255.566 355.797C250.359 355.797 246.888 359.268 246.888 364.475H238.21V312.407H246.888C246.888 317.614 250.359 321.085 255.566 321.085C260.773 321.085 264.244 317.614 264.244 312.407V295.051C264.244 289.844 260.773 286.373 255.566 286.373C250.359 286.373 246.888 289.844 246.888 295.051H238.21V255.132L340.61 144.054C343.213 142.318 343.213 138.847 342.346 135.376L329.329 104.135H359.702C360.133 104.135 360.55 104.108 360.95 104.055C360.964 104.053 360.977 104.051 360.991 104.049C361.32 104.003 361.636 103.936 361.941 103.854C364.353 103.244 366.369 101.61 368.38 98.928C370.116 96.325 369.248 92.853 367.512 90.25L331.775 42.6L334.536 43.389C365.777 52.935 390.943 78.101 398.753 110.209L462.102 340.175C462.969 342.78 462.969 345.383 461.234 347.119Z" fill="#333333"/>
</svg>
