<svg width="512" height="512" viewBox="0 0 512 512" fill="none" xmlns="http://www.w3.org/2000/svg">
<path d="M423.507 202.487C421.439 197.871 410.238 174.862 392.457 174.862C391.014 174.862 389.582 175.154 388.249 175.726L304.244 211.762C294.508 195.21 276.552 184.045 256.002 184.045C235.448 184.045 217.496 195.21 207.756 211.762L123.747 175.726C122.418 175.154 120.99 174.862 119.544 174.862C101.762 174.862 90.5577 197.875 88.3723 202.768C88.0489 203.55 80.4551 222.291 80.4551 255.996C80.4551 291.002 88.152 308.744 88.4931 309.512C90.5612 314.128 101.762 337.137 119.544 337.137C120.99 337.137 122.418 336.842 123.747 336.273L208.609 299.871C218.523 315.645 236.031 326.185 255.998 326.185C275.965 326.185 293.477 315.645 303.388 299.871L388.249 336.273C389.582 336.842 391.01 337.137 392.457 337.137C410.238 337.137 421.439 314.121 423.521 309.48C423.848 308.744 431.545 291.002 431.545 255.996C431.545 222.291 423.951 203.546 423.507 202.487ZM200.013 280.359L118.517 315.315C115.734 313.517 110.93 307.376 107.998 300.902C107.934 300.756 101.776 285.938 101.776 255.992C101.776 228.275 107.469 212.512 108.048 210.984C110.752 205.042 115.628 198.493 118.474 196.66L200.013 231.637V240.03V270.192V280.359ZM256.002 304.864C236.888 304.864 221.334 289.314 221.334 270.196V240.034C221.334 220.916 236.884 205.366 256.002 205.366C275.116 205.366 290.67 220.916 290.67 240.034V270.196C290.666 289.314 275.113 304.864 256.002 304.864ZM404.048 300.799C401.369 306.776 396.44 313.435 393.491 315.318L311.987 280.359V270.196V240.034V231.64L393.484 196.681C396.238 198.461 400.978 204.509 403.956 210.998C404.553 212.59 410.224 228.35 410.224 255.996C410.224 285.941 404.062 300.76 404.048 300.799Z" fill="#333333"/>
</svg>
